<?xml version="1.0" encoding="utf-8"?>
<svg version="1.1" xmlns="http://www.w3.org/2000/svg" xmlns:xlink="http://www.w3.org/1999/xlink" x="0px" y="0px" width="32px" height="32px"
	 viewBox="0 0 32 32" enable-background="new 0 0 32 32" xml:space="preserve">
	<g id="图层_2">
		<path stroke="param(stroke) #027871" fill="param(fill)" d="M20.582,16C22.064,14.615,23,12.642,23,10.447c0-4.026-3.131-7.318-7.063-7.548V0.556
			c0-0.279-0.224-0.504-0.5-0.504s-0.5,0.226-0.5,0.504v2.349C11.064,3.197,8,6.464,8,10.447c0,2.195,0.936,4.168,2.418,5.552
			C8.936,17.384,8,19.357,8,21.552c0,4.004,3.098,7.283,7,7.545v2.45c0,0.279,0.224,0.505,0.5,0.505s0.5-0.226,0.5-0.505v-2.45
			c3.902-0.262,7-3.541,7-7.545C23,19.357,22.064,17.384,20.582,16z M15.5,3.886c3.114,0,5.721,2.223,6.352,5.178h-5.568
			c-0.169-0.248-0.438-0.421-0.759-0.421s-0.59,0.173-0.759,0.421H9.148C9.779,6.109,12.386,3.886,15.5,3.886z M9,10.447
			c0-0.132,0.012-0.261,0.02-0.392c0.015,0.001,0.028,0.009,0.043,0.009h5.67c0.163,0.277,0.45,0.472,0.792,0.472
			s0.629-0.195,0.793-0.472h5.663c0.008,0.127,0.02,0.253,0.02,0.383c0,1.954-0.855,3.706-2.202,4.909
			c-1.219-0.864-2.699-1.376-4.298-1.376c-1.599,0-3.08,0.512-4.298,1.376C9.855,14.153,9,12.401,9,10.447z M15.5,17.009
			c-1.267,0-2.447-0.374-3.448-1.009c1.001-0.636,2.181-1.009,3.448-1.009s2.447,0.374,3.447,1.009
			C17.947,16.635,16.767,17.009,15.5,17.009z M15.5,28.112c-3.584,0-6.5-2.943-6.5-6.561c0-1.954,0.855-3.706,2.202-4.909
			c1.09,0.773,2.392,1.256,3.799,1.351c-0.009,0.038-0.023,0.073-0.023,0.114v3.72c0,0.019,0.008,0.034,0.01,0.053
			c-0.008,0.005-0.018,0.002-0.026,0.008l-2.91,1.973c-0.229,0.155-0.29,0.469-0.136,0.699c0.154,0.232,0.464,0.295,0.694,0.139
			l2.91-1.973c0.015-0.01,0.022-0.025,0.036-0.036l3.264,2.01c0.236,0.146,0.544,0.07,0.688-0.168s0.069-0.549-0.166-0.694
			l-3.302-2.032c-0.019-0.012-0.041-0.009-0.061-0.018v-3.68c0-0.04-0.014-0.075-0.022-0.112c1.424-0.087,2.741-0.571,3.842-1.353
			C21.145,17.846,22,19.598,22,21.552C22,25.169,19.084,28.112,15.5,28.112z"/>
	</g>
	<script type="text/javascript" xlink:href="../param.js" />
</svg>
