<?xml version="1.0" encoding="utf-8"?>
<!-- Generator: Adobe Illustrator 16.0.0, SVG Export Plug-In . SVG Version: 6.00 Build 0)  -->
<!DOCTYPE svg PUBLIC "-//W3C//DTD SVG 1.1//EN" "http://www.w3.org/Graphics/SVG/1.1/DTD/svg11.dtd">
<svg version="1.1" id="图层_1" xmlns="http://www.w3.org/2000/svg" xmlns:xlink="http://www.w3.org/1999/xlink" x="0px" y="0px"
	 width="32px" height="32px" viewBox="0 0 32 32" enable-background="new 0 0 32 32" xml:space="preserve">
<g>
	<path d="M31.317,14.877l-5.19-3.527c-0.91-0.617-1.654-0.224-1.654,0.877L24.472,14h-6.822V7.528h1.773
		c1.101,0,1.494-0.744,0.877-1.654l-3.526-5.191c-0.618-0.91-1.63-0.91-2.247,0L11,5.874c-0.618,0.909-0.224,1.654,0.876,1.654
		h1.773V14H7.529v-1.773c0-1.1-0.744-1.494-1.655-0.877l-5.191,3.527c-0.91,0.617-0.91,1.629,0,2.247l5.191,3.526
		c0.91,0.617,1.655,0.224,1.655-0.877V18h6.122v6.473h-1.773c-1.101-0.001-1.494,0.743-0.877,1.654l3.526,5.19
		c0.618,0.91,1.63,0.91,2.247,0l3.526-5.19c0.617-0.91,0.224-1.654-0.876-1.654l-1.774-0.001V18h6.823v1.773
		c-0.001,1.101,0.744,1.494,1.654,0.877l5.19-3.526C32.228,16.506,32.228,15.494,31.317,14.877L31.317,14.877z M31.317,14.877"/>
</g>
</svg>
