<?xml version="1.0" encoding="utf-8"?>
<!-- Generator: Adobe Illustrator 16.0.0, SVG Export Plug-In . SVG Version: 6.00 Build 0)  -->
<!DOCTYPE svg PUBLIC "-//W3C//DTD SVG 1.1//EN" "http://www.w3.org/Graphics/SVG/1.1/DTD/svg11.dtd">
<svg version="1.1" id="图层_1" xmlns="http://www.w3.org/2000/svg" xmlns:xlink="http://www.w3.org/1999/xlink" x="0px" y="0px"
	 width="32px" height="32px" viewBox="0 0 32 32" enable-background="new 0 0 32 32" xml:space="preserve">
<g>
	<path d="M28,0h-2L7.999,18v6h6L32,5.999v-2L28,0z M11.999,22h-2v-2l2-2l2,2L11.999,22z M16.5,17.5l-2.001-2.001L26.5,3.5l2,2
		L16.5,17.5z"/>
	<path d="M22,26.5H7.703c-0.405-1.001-1.202-1.798-2.203-2.204V10c0-0.829-0.672-1.5-1.5-1.5S2.5,9.171,2.5,10v14.297
		C1.035,24.891,0,26.322,0,28c0,2.209,1.791,4,4,4c1.678,0,3.109-1.035,3.703-2.5H22c0.828,0,1.5-0.671,1.5-1.5S22.828,26.5,22,26.5
		z M4,30c-1.103,0-2-0.897-2-2s0.897-2,2-2s2,0.897,2,2S5.103,30,4,30z"/>
</g>
</svg>
