<?xml version="1.0" standalone="no"?>
<!DOCTYPE svg PUBLIC "-//W3C//DTD SVG 1.1//EN" "http://www.w3.org/Graphics/SVG/1.1/DTD/svg11.dtd" >
<svg xmlns="http://www.w3.org/2000/svg">
<metadata>Generated by IcoMoon</metadata>
<defs>
<font id="icomoon" horiz-adv-x="1024">
<font-face units-per-em="1024" ascent="960" descent="-64" />
<missing-glyph horiz-adv-x="1024" />
<glyph unicode="&#x20;" horiz-adv-x="512" d="" />
<glyph unicode="&#xe900;" glyph-name="symbol-bingliandianrongqi" d="M862.448 248.897h-315.404v631.824c0 19.344-15.664 35.044-35.044 35.044-19.344 0-35.044-15.7-35.044-35.044v-631.824h-315.404c-19.344 0-35.044-15.664-35.044-35.044s15.7-35.044 35.044-35.044h700.896c19.38 0 35.044 15.664 35.044 35.044s-15.664 35.044-35.044 35.044zM839.475 62.079h-654.109c-22.566 0-40.88-18.274-40.88-40.88s18.315-40.88 40.88-40.88h654.109c22.607 0 40.88 18.274 40.88 40.88s-18.274 40.88-40.88 40.88z" />
<glyph unicode="&#xe901;" glyph-name="01010010" d="M933.696 960h-843.328c-49.792 0-90.368-40.544-90.368-90.368v-843.296c0-49.76 40.576-90.336 90.368-90.336h843.328c49.728 0 90.304 40.576 90.304 90.336v843.296c0 49.824-40.576 90.368-90.304 90.368zM94.112 896h820.608l-96-96h-754.72v65.888c0 16.64 13.472 30.112 30.112 30.112zM754.72 736l-64-64h-626.72v64h690.72zM64 608h562.72l-64-64h-498.72v64zM498.752 480l-64-64h-370.752v64h434.752zM370.752 352l-64-64h-242.752v64h306.752zM242.752 224l-178.752-178.752v178.752h178.752zM929.888 0h-820.608l850.72 850.72v-820.608c0-16.608-13.504-30.112-30.112-30.112z" />
<glyph unicode="&#xe902;" glyph-name="01010011" d="M933.696 960h-843.328c-49.792 0-90.368-40.544-90.368-90.368v-843.296c0-49.76 40.576-90.336 90.368-90.336h843.328c49.728 0 90.304 40.576 90.304 90.336v843.296c0 49.824-40.576 90.368-90.304 90.368zM94.112 896h820.608l-850.72-850.752v820.64c0 16.64 13.472 30.112 30.112 30.112zM929.888 0h-820.608l850.72 850.72v-820.608c0-16.608-13.504-30.112-30.112-30.112z" />
<glyph unicode="&#xe903;" glyph-name="01010020" d="M1024 442.656v426.976c0 49.824-40.576 90.368-90.304 90.368h-843.328c-49.792 0-90.368-40.544-90.368-90.368v-843.296c0-49.76 40.576-90.336 90.368-90.336h843.328c49.728 0 90.304 40.576 90.304 90.336v416.32zM929.888 0h-28.192l58.304 58.304v-28.192c0-16.608-13.504-30.112-30.112-30.112zM64 30.112v50.56l367.328 367.328h90.56l-443.2-443.136c-8.64 5.248-14.688 14.4-14.688 25.248zM114.56 448l-50.56-50.56v50.56h50.56zM159.808 448h90.496l-186.304-186.304v90.496l95.808 95.808zM295.552 448h90.496l-322.048-322.048v90.496l231.552 231.552zM567.136 448h90.496l-448-448h-90.496l448 448zM702.848 448h90.528l-448-448h-90.528l448 448zM838.624 448h90.528l-448-448h-90.528l448 448zM960 433.6v-90.528l-343.136-343.072h-90.464l433.6 433.6zM960 297.888v-90.56l-207.328-207.328h-90.56l297.888 297.888zM960 162.048v-58.496l-103.552-103.552h-58.496l162.048 162.048zM64 865.888c0 16.64 13.472 30.112 30.112 30.112h835.744c16.64 0 30.144-13.472 30.144-30.112v-353.888h-896v353.888z" />
<glyph unicode="&#xe904;" glyph-name="01010021" d="M933.696 960h-843.328c-49.792 0-90.368-40.544-90.368-90.368v-843.296c0-49.76 40.576-90.336 90.368-90.336h843.328c49.728 0 90.304 40.576 90.304 90.336v843.296c0 49.824-40.576 90.368-90.304 90.368zM960 30.112c0-16.608-13.504-30.112-30.112-30.112h-835.776c-16.64 0-30.112 13.504-30.112 30.112v417.888h896v-417.888zM960 512h-896v353.888c0 16.64 13.472 30.112 30.112 30.112h835.744c16.64 0 30.144-13.472 30.144-30.112v-353.888z" />
<glyph unicode="&#xe905;" glyph-name="01010030" d="M928 960h-832c-52.928 0-96-43.072-96-96v-832c0-52.928 43.072-96 96-96h832c4.928 0 9.696 0.736 14.432 1.44l0.128-0.256 0.64 0.32c45.664 7.36 80.8 46.752 80.8 94.496v832c0 52.928-43.072 96-96 96zM735.072 445.152l224.928 407.104v-814.176l-224.928 407.072zM875.616 832h-354.336l-35.328 64h425.056l-35.392-64zM840.288 768l-35.328-64h-212.96l-35.36 64h283.648zM769.568 640l-71.104-128.64-71.104 128.64h142.208zM595.2 192h206.624l35.328-64h-277.344l35.392 64zM630.496 256l67.968 122.944 67.936-122.944h-135.904zM64 864c0 17.632 14.368 32 32 32h316.736l229.888-416h-578.624v384zM64 32v384h581.824l-229.92-416h-319.904c-17.632 0-32 14.368-32 32zM489.024 0l35.328 64h348.128l35.328-64h-418.784z" />
<glyph unicode="&#xe906;" glyph-name="01010031" d="M928 960h-832c-52.896 0-96-43.104-96-96v-832c0-52.928 43.104-96 96-96h832c52.928 0 96 43.072 96 96v832c0 52.896-43.072 96-96 96zM767.072 445.184l192.928 349.152v-698.336l-192.928 349.184zM941.28 892.864l-210.816-381.536-212.544 384.672h410.080c4.736 0 9.216-1.216 13.28-3.136zM96 896h348.704l229.92-416h-610.624v384c0 17.632 14.368 32 32 32zM64 32v384h613.824l-229.92-416h-351.904c-17.632 0-32 14.368-32 32zM521.024 0l209.44 378.944 208.192-376.8c-3.328-1.216-6.88-2.144-10.656-2.144h-406.976z" />
<glyph unicode="&#xe907;" glyph-name="01010040" d="M1024 480v384c0 52.896-43.072 96-96 96h-832c-52.928 0-96-43.104-96-96v-832c0-52.928 43.072-96 96-96h832c52.928 0 96 43.072 96 96v448zM960 32c0-17.632-14.368-32-32-32h-41.376l73.376 73.376v-41.376zM64 32v75.2l414.688 404.8h1.312v-104.512l-407.136-397.376c-5.44 5.76-8.864 13.376-8.864 21.888zM846.624 416h106.752l-409.376-409.376v106.752l302.624 302.624zM544 158.624v106.752l150.624 150.624h106.752l-257.376-257.376zM544 310.624v105.376h105.376l-105.376-105.376zM480 363.328v-105.76l-263.904-257.568h-108.32l372.224 363.328zM261.376 0l218.624 213.376v-105.76l-110.24-107.616h-108.384zM480 63.424v-62.112c0-0.32-0.16-0.928-0.192-1.312h-64.8l64.992 63.424zM582.624 0l377.376 377.376v-106.752l-270.624-270.624h-106.752zM960 225.376v-106.752l-118.624-118.624h-106.752l225.376 225.376zM96 896h832c17.632 0 32-14.368 32-32v-384h-416v45.312c0 15.264-6.112 50.688-63.072 50.688h-402.496c-5.408 0-9.76-0.608-14.432-0.928v288.928c0 17.632 14.368 32 32 32zM64 511.136c3.616 0.448 8.448 0.864 14.432 0.864h47.808l-62.24-60.736v59.872zM64 407.072l107.488 104.928h108.352l-215.84-210.688v105.76zM325.12 512h108.32l-369.44-360.64v105.76l261.12 254.88z" />
<glyph unicode="&#xe908;" glyph-name="01010041" d="M928 960h-832c-52.928 0-96-43.104-96-96v-862.688c0-15.136 11.616-43.136 28.864-65.312h899.136c41.696 0 76.8 26.816 90.112 64h5.888v864c0 52.896-43.072 96-96 96zM480 480v-478.688c0-0.32-0.16-0.928-0.192-1.312h-383.808c-17.632 0-32 14.368-32 32v479.136c3.616 0.448 8.448 0.864 14.432 0.864h401.568v-32zM928 0h-384v416h416v-384c0-17.632-14.368-32-32-32zM544 480v45.312c0 15.264-6.112 50.688-63.072 50.688h-402.496c-5.376 0-9.76-0.608-14.432-0.928v288.928c0 17.632 14.368 32 32 32h832c17.632 0 32-14.368 32-32v-384h-416z" />
<glyph unicode="&#xe909;" glyph-name="01010050" d="M928 960h-832c-52.928 0-96-43.072-96-96v-832c0-52.928 43.072-96 96-96h832c52.928 0 96 43.072 96 96v832c0 52.928-43.072 96-96 96zM960 32c0-17.632-14.368-32-32-32h-832c-17.632 0-32 14.368-32 32v832c0 17.632 14.368 32 32 32h832c17.632 0 32-14.368 32-32v-832zM512 745.984c-164.32 0-298.016-133.728-298.016-298.016s133.696-298.016 298.016-298.016 298.016 133.728 298.016 298.016-133.696 298.016-298.016 298.016zM481.088 679.712l-200.8-200.8c13.888 104.288 96.512 186.976 200.8 200.8zM291.616 370.24c-6.944 19.552-11.328 40.352-12.768 61.952l248.992 249.024c21.6-1.472 42.336-5.856 61.984-12.768l-298.208-298.208zM305.28 338.624l316.064 316.096c15.936-8.48 30.688-18.784 44.16-30.56l-329.664-329.696c-11.776 13.472-22.080 28.224-30.56 44.16zM358.496 271.872l329.664 329.664c11.776-13.472 22.080-28.224 30.56-44.16l-316.064-316.064c-15.936 8.448-30.688 18.784-44.16 30.56zM542.912 216.288l200.8 200.8c-13.824-104.288-96.512-186.976-200.8-200.8zM745.184 463.808l-249.024-249.024c-21.6 1.472-42.336 5.856-61.984 12.768l298.24 298.24c6.944-19.616 11.328-40.384 12.768-61.984z" />
<glyph unicode="&#xe90a;" glyph-name="01010051" d="M928 960h-832c-52.928 0-96-43.072-96-96v-832c0-52.928 43.072-96 96-96h832c52.928 0 96 43.072 96 96v832c0 52.928-43.072 96-96 96zM960 32c0-17.632-14.368-32-32-32h-832c-17.632 0-32 14.368-32 32v832c0 17.632 14.368 32 32 32h832c17.632 0 32-14.368 32-32v-832zM512 745.984c-164.32 0-298.016-133.728-298.016-298.016s133.696-298.016 298.016-298.016 298.016 133.728 298.016 298.016-133.696 298.016-298.016 298.016zM512 213.984c-129.024 0-234.016 104.928-234.016 234.016s104.992 233.984 234.016 233.984 234.016-104.96 234.016-234.016-104.992-233.984-234.016-233.984z" />
<glyph unicode="&#xe90b;" glyph-name="01010060" d="M604.736 794.208c-3.072 4.32-9.024 8.224-14.304 8.672-5.152 0.576-12.736 0.832-16.512-2.912l-5.888-5.856-79.392 79.456c-8.864 8.896-19.296 12.832-27.36 4.736-8.064-8.064-4.128-18.464 4.736-27.36l79.424-79.456-8.352-8.352c-3.744-3.744-3.328-11.232-2.912-16.512s5.44-12.384 9.824-15.456l126.944-90.144c3.136-2.24 6.816-3.328 10.432-3.328 4.64 0 8.928 2.080 12.448 5.568 6.144 6.208 6.688 16.256 1.632 23.424l-90.72 127.52zM473.12 674.56c-3.072 4.32-9.024 8.224-14.304 8.672-5.12 0.576-12.736 0.8-16.512-2.944l-5.824-5.856-79.456 79.488c-8.864 8.896-19.296 12.832-27.328 4.736-8.096-8.064-4.16-18.464 4.704-27.36l79.456-79.456-8.384-8.352c-3.744-3.744-3.36-11.264-2.912-16.544 0.48-5.312 5.472-12.384 9.856-15.456l126.944-90.112c3.136-2.24 6.752-3.328 10.432-3.328 4.64 0 8.896 2.048 12.384 5.568 6.176 6.176 6.752 16.256 1.696 23.424l-90.752 127.52zM933.696 960h-843.328c-49.792 0-90.368-40.544-90.368-90.368v-843.296c0-49.76 40.576-90.336 90.368-90.336h843.328c49.728 0 90.304 40.576 90.304 90.336v843.296c0 49.824-40.576 90.368-90.304 90.368zM64 448h50.56l-50.56-50.56v50.56zM64 352.192l95.808 95.808h90.496l-186.304-186.304v90.496zM64 216.448l231.552 231.552h90.496l-322.048-322.048v90.496zM78.688 4.864c-8.64 5.248-14.688 14.4-14.688 25.248v50.56l367.328 367.328h90.56l-443.2-443.136zM119.136 0l448 448h90.496l-448-448h-90.496zM254.848 0l448 448h90.528l-448-448h-90.528zM390.656 0l448 448h90.528l-448-448h-90.528zM960 30.112c0-16.608-13.504-30.112-30.112-30.112h-28.192l58.304 58.304v-28.192zM960 103.552l-103.552-103.552h-58.496l162.048 162.048v-58.496zM960 207.328l-207.328-207.328h-90.56l297.888 297.888v-90.56zM960 343.136l-343.136-343.136h-90.464l433.6 433.6v-90.464zM960 512h-896v353.888c0 16.64 13.472 30.112 30.112 30.112h835.744c16.64 0 30.144-13.472 30.144-30.112v-353.888z" />
<glyph unicode="&#xe90c;" glyph-name="01010061" d="M933.696 960h-843.328c-49.792 0-90.368-40.544-90.368-90.368v-843.296c0-49.76 40.576-90.336 90.368-90.336h843.328c49.728 0 90.304 40.576 90.304 90.336v843.296c0 49.824-40.576 90.368-90.304 90.368zM960 30.112c0-16.608-13.504-30.112-30.112-30.112h-835.84c-16.576 0-30.048 13.504-30.048 30.112v417.888h896v-417.888zM960 512h-896v353.888c0 16.64 13.472 30.112 30.048 30.112h835.808c16.64 0 30.144-13.472 30.144-30.112v-353.888zM604.672 794.208c-3.072 4.32-8.992 8.224-14.272 8.672-5.12 0.576-12.704 0.832-16.544-2.912l-5.856-5.856-79.456 79.456c-8.832 8.896-19.264 12.832-27.328 4.736-8.096-8.064-4.16-18.464 4.672-27.36l79.456-79.456-8.352-8.352c-3.744-3.744-3.36-11.232-2.944-16.512 0.48-5.312 5.504-12.384 9.824-15.456l126.976-90.144c3.168-2.24 6.784-3.328 10.4-3.328 4.672 0 8.928 2.080 12.448 5.568 6.176 6.208 6.752 16.256 1.696 23.424l-90.72 127.52zM473.12 674.56c-3.072 4.32-9.024 8.224-14.272 8.672-5.152 0.576-12.768 0.832-16.544-2.912l-5.824-5.856-79.456 79.456c-8.864 8.896-19.296 12.832-27.328 4.736-8.096-8.064-4.16-18.496 4.704-27.36l79.392-79.424-8.352-8.352c-3.68-3.744-3.328-11.232-2.88-16.512 0.448-5.312 5.44-12.384 9.824-15.456l126.944-90.144c3.168-2.24 6.816-3.328 10.432-3.328 4.672 0 8.928 2.080 12.448 5.568 6.176 6.208 6.688 16.256 1.664 23.424l-90.752 127.488z" />
<glyph unicode="&#xe90d;" glyph-name="01010070" d="M191.008 288h642.016c17.088 0 30.976 13.888 30.976 31.008v2.016c0 17.088-13.888 30.976-31.008 30.976h-641.984c-17.12 0-31.008-13.888-31.008-31.008v-2.016c0-17.088 13.888-30.976 31.008-30.976zM736 224h-480c-17.696 0-32-14.336-32-32s14.304-32 32-32h480c17.696 0 32 14.336 32 32s-14.304 32-32 32zM640.992 96h-290.016c-17.088 0-30.976-13.888-30.976-31.008v-2.016c0-17.088 13.888-30.976 31.008-30.976h290.016c17.088 0 30.976 13.888 30.976 31.008v2.016c0 17.088-13.888 30.976-31.008 30.976zM933.632 960h-843.328c-49.728 0-90.304-40.576-90.304-90.336v-843.296c0-49.792 40.576-90.368 90.304-90.368h843.328c49.792 0 90.368 40.576 90.368 90.368v843.296c0 49.76-40.576 90.336-90.368 90.336zM904.864 896l-448-448h-90.464l448 448h90.464zM769.184 896l-448-448h-90.528l448 448h90.528zM633.376 896l-448-448h-90.56l448 448h90.56zM64 865.888c0 16.608 13.504 30.112 30.112 30.112h28.16l-58.272-58.272v28.16zM64 792.48l103.52 103.52h58.528l-162.048-162.048v58.528zM64 688.672l207.328 207.328h90.56l-297.888-297.856v90.528zM64 552.896l343.136 343.104h90.464l-433.6-433.568v90.464zM960 30.112c0-16.64-13.472-30.112-30.112-30.112h-835.776c-16.608 0-30.112 13.472-30.112 30.112v353.888h896v-353.888zM960 448h-50.56l50.56 50.592v-50.592zM960 543.808l-95.808-95.808h-90.496l186.304 186.304v-90.496zM960 679.552l-231.552-231.552h-90.496l322.048 322.048v-90.496zM960 815.328l-367.328-367.328h-90.56l443.2 443.136c8.64-5.28 14.688-14.4 14.688-25.248v-50.56z" />
<glyph unicode="&#xe90e;" glyph-name="01010071" d="M933.632 960h-843.36c-49.696 0-90.272-40.576-90.272-90.336v-843.296c0-49.792 40.576-90.368 90.272-90.368h843.328c49.824 0 90.4 40.576 90.4 90.368v843.296c0 49.76-40.576 90.336-90.368 90.336zM960 30.112c0-16.64-13.504-30.112-30.112-30.112h-835.808c-16.576 0-30.080 13.472-30.080 30.112v353.888h896v-353.888zM960 448h-896v417.888c0 16.608 13.504 30.112 30.080 30.112h835.776c16.64 0 30.144-13.504 30.144-30.112v-417.888zM191.008 288h642.016c17.088 0 30.976 13.888 30.976 31.008v2.016c0 17.088-13.888 30.976-31.008 30.976h-641.984c-17.12 0-31.008-13.888-31.008-31.008v-2.016c0-17.088 13.888-30.976 31.008-30.976zM736 224h-480c-17.728 0-32-14.336-32-32s14.272-32 32-32h480c17.696 0 32 14.336 32 32s-14.304 32-32 32zM640.992 96h-290.048c-17.056 0-30.944-13.888-30.944-31.008v-2.016c0-17.088 13.888-30.976 31.008-30.976h290.016c17.088 0 30.976 13.888 30.976 31.008v2.016c0 17.088-13.888 30.976-31.008 30.976z" />
<glyph unicode="&#xe90f;" glyph-name="01010080" d="M928 960h-832c-52.928 0-96-43.072-96-96v-832c0-52.928 43.072-96 96-96h832c52.928 0 96 43.072 96 96v832c0 52.928-43.072 96-96 96zM960 32c0-17.632-14.368-32-32-32h-832c-17.632 0-32 14.368-32 32v832c0 17.632 14.368 32 32 32h832c17.632 0 32-14.368 32-32v-832zM104.704 448l407.296-407.328 407.328 407.328-407.328 407.328-407.296-407.328zM512 131.264l-316.768 316.736 45.248 45.248 316.768-316.736-45.248-45.248zM602.496 221.696l-316.768 316.768 45.248 45.28 316.8-316.768-45.28-45.28zM693.024 312.256l-316.8 316.768 45.28 45.28 316.736-316.768-45.216-45.28zM783.488 402.752l-316.736 316.736 45.248 45.248 316.736-316.736-45.248-45.248z" />
<glyph unicode="&#xe910;" glyph-name="01010081" d="M928 960h-832c-52.928 0-96-43.072-96-96v-832c0-52.928 43.072-96 96-96h832c52.928 0 96 43.072 96 96v832c0 52.928-43.072 96-96 96zM960 32c0-17.632-14.368-32-32-32h-832c-17.632 0-32 14.368-32 32v832c0 17.632 14.368 32 32 32h832c17.632 0 32-14.368 32-32v-832zM104.672 448l407.328-407.328 407.328 407.328-407.328 407.328-407.328-407.328zM512 131.264l-316.736 316.736 316.736 316.736 316.736-316.736-316.736-316.736z" />
<glyph unicode="&#xe911;" glyph-name="01010090" d="M1024 864c0 52.928-43.072 96-96 96h-832c-52.928 0-96-43.072-96-96v-832c0-52.928 43.072-96 96-96h832c52.928 0 96 43.072 96 96v832zM960 832h-62.816l53.952 53.856c5.44-5.76 8.864-13.376 8.864-21.856v-32zM157.952 192l14.816 32h787.232v-32h-802.048zM960 160v-32h-831.744l14.816 32h816.928zM187.488 256l14.816 32h757.696v-32h-772.512zM217.152 320l14.816 32h728.032v-32h-742.848zM246.784 384l14.816 32h698.4v-32h-713.216zM448 800v-32h-23.424l14.816 32h8.608zM448 736v-32h-53.088l14.848 32h38.24zM448 672v-32h-82.72l14.816 32h67.904zM448 608v-32h-112.384l14.848 32h97.536zM448 544v-32h-141.984l14.816 32h127.168zM448 480v-32h-171.552l14.816 32h156.736zM512 448v1.472l0.992-0.992 31.648 31.52h415.36v-32h-448zM576.64 512l32.064 32h351.296v-32h-383.36zM640.736 576l32.064 32h287.2v-32h-319.264zM704.864 640l32 32h223.136v-32h-255.136zM768.928 704l32.096 32h158.976v-32h-191.072zM833.088 768l32.064 32h94.848v-32h-126.912zM928 0h-832c-8.8 0-16.8 3.552-22.624 9.408l10.464 22.592h876.16c0-17.632-14.368-32-32-32zM98.656 64l14.816 32h846.528v-32h-861.344zM864 896h3.328l-355.328-356.416v356.416h352zM64 160v704c0 17.632 14.368 32 32 32h318.624l-350.624-756v20z" />
<glyph unicode="&#xe912;" glyph-name="01010091" d="M928 960h-832c-52.896 0-96-43.072-96-96v-832c0-52.928 43.104-96 96-96h832c52.928 0 96 43.072 96 96v832c0 52.928-43.072 96-96 96zM512 896h355.328l-355.328-356.416v356.416zM64 864c0 17.632 14.368 32 32 32h318.624l-350.624-756v724zM960 32c0-17.632-14.368-32-32-32h-832c-8.768 0-16.832 3.552-22.624 9.408l374.624 809.28v-370.688h64v1.472l0.96-0.96 438.176 437.344c5.44-5.76 8.864-13.376 8.864-21.856v-832z" />
<glyph unicode="&#xe913;" glyph-name="01010100" d="M1024 864c0 52.928-43.072 96-96 96h-832c-52.928 0-96-43.072-96-96v-832c0-52.928 43.072-96 96-96h832c52.928 0 96 43.072 96 96v832zM960 832h-281.632l21.824 64h227.808c17.632 0 32-14.368 32-32v-32zM470.656 224h489.344v-64h-511.2l21.856 64zM518.208 256l116.416 64h325.376v-64h-441.792zM667.68 352c1.312 6.976 0.736 14.368-2.944 21.088-8.576 15.456-28 21.152-43.488 12.672l-61.312-33.76h-45.472l21.792 64h423.744v-64h-292.32zM547.2 448l21.888 64h390.912v-64h-412.8zM580 544l21.888 64h358.112v-64h-380zM612.736 640l21.888 64h325.376v-64h-347.264zM645.568 736l21.888 64h292.544v-64h-314.432zM928 0h-533.856l10.944 32h554.912c0-17.632-14.368-32-32-32zM416 64l21.856 64h522.144v-64h-544zM64 32v832c0 17.632 14.4 32 32 32h536.544l-68.736-201.344-88.608 152c-8.896 15.296-28.512 20.448-43.776 11.52-15.296-8.896-20.48-28.48-11.52-43.744l116.544-199.904-209.92-614.528h-230.528c-17.6 0-32 14.368-32 32z" />
<glyph unicode="&#xe914;" glyph-name="01010101" d="M928 960h-832c-52.928 0-96-43.072-96-96v-832c0-52.928 43.072-96 96-96h832c52.928 0 96 43.072 96 96v832c0 52.928-43.072 96-96 96zM64 32v832c0 17.632 14.368 32 32 32h536.64l-68.8-201.344-88.64 152.032c-8.864 15.296-28.512 20.448-43.744 11.52-15.296-8.896-20.448-28.48-11.52-43.744l116.608-199.936-210.048-614.528h-230.496c-17.632 0-32 14.368-32 32zM960 32c0-17.632-14.368-32-32-32h-533.888l79.008 231.264 179.008 98.368c15.424 8.512 21.12 28 12.64 43.456-8.576 15.456-28 21.152-43.456 12.672l-117.408-64.576 196.32 574.816h227.776c17.632 0 32-14.368 32-32v-832z" />
<glyph unicode="&#xe915;" glyph-name="01010110" d="M933.696 960h-843.328c-49.76 0-90.368-40.544-90.368-90.368v-843.296c0-49.76 40.608-90.336 90.368-90.336h843.328c49.728 0 90.304 40.576 90.304 90.336v843.296c0 49.824-40.576 90.368-90.304 90.368zM64 30.112v417.888h145.28l153.152-448h-268.352c-16.608 0-30.080 13.504-30.080 30.112zM635.712 128h-249.888l-22.112 64h294.144l-22.144-64zM613.6 64l-22.144-64h-161.28l-22.112 64h205.536zM680 256h-338.4l-22.112 64h382.72l-22.208-64zM724.288 384h-426.976l-20.352 64h467.584l-20.256-64zM960 30.112c0-16.608-13.504-30.112-30.112-30.112h-270.688l153.12 448h147.68v-417.888zM960 512h-896v353.888c0 16.64 13.472 30.112 30.080 30.112h835.776c16.64 0 30.144-13.472 30.144-30.112v-353.888z" />
<glyph unicode="&#xe916;" glyph-name="01010111" d="M933.696 960h-843.328c-49.792 0-90.368-40.544-90.368-90.368v-843.296c0-49.76 40.576-90.336 90.368-90.336h843.328c49.728 0 90.304 40.576 90.304 90.336v843.296c0 49.824-40.576 90.368-90.304 90.368zM64 30.112v417.888h145.28l153.152-448h-268.32c-16.64 0-30.112 13.504-30.112 30.112zM276.992 448h467.552l-153.12-448h-161.312l-153.12 448zM960 30.112c0-16.608-13.504-30.112-30.112-30.112h-270.688l153.12 448h147.68v-417.888zM960 512h-896v353.888c0 16.64 13.472 30.112 30.112 30.112h835.744c16.64 0 30.144-13.472 30.144-30.112v-353.888z" />
<glyph unicode="&#xe917;" glyph-name="01010120" d="M933.696 960h-843.328c-49.792 0-90.368-40.544-90.368-90.368v-843.296c0-49.76 40.576-90.336 90.368-90.336h843.328c49.728 0 90.304 40.576 90.304 90.336v843.296c0 49.824-40.576 90.368-90.304 90.368zM960 30.112c0-16.608-13.504-30.112-30.112-30.112h-835.776c-16.608 0-30.112 13.504-30.112 30.112v835.776c0 16.64 13.504 30.112 30.112 30.112h835.744c16.64 0 30.144-13.472 30.144-30.112v-835.776zM512 832c-212.064 0-384-171.936-384-384s171.936-384 384-384 384 171.936 384 384-171.936 384-384 384zM512 128c-176.448 0-320 143.552-320 320s143.552 320 320 320 320-143.552 320-320c0-176.448-143.552-320-320-320zM524.448 453.824c-65.376 110.528-225.312 110.528-290.688 0 7.712-4.608 15.488-9.184 23.328-13.824 54.432 92.032 186.816 92.672 242.56 2.176 65.376-110.528 225.248-110.528 290.624 0-7.712 4.608-15.488 9.184-23.328 13.792-54.432-92-186.816-92.64-242.496-2.144z" />
<glyph unicode="&#xe918;" glyph-name="01020010" d="M512 960c-282.752 0-512-229.248-512-512 0-282.784 229.248-512 512-512s512 229.216 512 512c0 282.752-229.248 512-512 512zM512 0c-247.072 0-448 200.928-448 448 0 247.040 200.928 448 448 448 247.008 0 448-200.96 448-448 0-247.072-200.992-448-448-448zM511.008 833.984c-212.064 0-384-171.936-384-384 0-212.128 171.936-384 384-384s384 171.872 384 384c0 212.096-171.936 384-384 384zM511.008 129.984c-176.448 0-320 143.52-320 320 0 176.448 143.552 320 320 320 176.48 0 320-143.552 320-320s-143.552-320-320-320zM703.488 448c0-106.039-85.961-192-192-192s-192 85.961-192 192c0 106.039 85.961 192 192 192s192-85.961 192-192z" />
<glyph unicode="&#xe919;" glyph-name="01020011" d="M512 960c-282.752 0-512-229.28-512-512s229.248-512 512-512 512 229.248 512 512c0 282.72-229.248 512-512 512zM512 0c-247.072 0-448 200.928-448 448 0 247.040 200.928 448 448 448s448-200.96 448-448c0-247.072-200.928-448-448-448zM511.072 833.984c-212.096 0-384-171.936-384-384 0-212.096 171.904-384 384-384 212.064 0 384 171.872 384 384 0 212.096-171.936 384-384 384zM511.072 129.984c-176.48 0-320 143.552-320 320s143.52 320 320 320c176.448 0 320-143.552 320-320 0-176.416-143.584-320-320-320zM511.488 640c-106.016 0-192-85.952-192-192s85.984-192 192-192c106.048 0 192 85.952 192 192s-85.92 192-192 192zM511.488 320c-70.56 0-128 57.44-128 128 0 70.624 57.44 128 128 128 70.624 0 128-57.376 128-128 0-70.56-57.44-128-128-128z" />
<glyph unicode="&#xe91a;" glyph-name="01020020" d="M512 960c-282.752 0-512-229.248-512-512 0-282.784 229.248-512 512-512s512 229.216 512 512c0 282.752-229.248 512-512 512zM512 0c-247.072 0-448 200.928-448 448 0 247.040 200.928 448 448 448s448-200.96 448-448c0-247.072-200.928-448-448-448zM511.072 833.984c-212.096 0-384-171.936-384-384 0-212.128 171.904-384 384-384 212.064 0 384 171.872 384 384 0 212.096-171.936 384-384 384zM511.072 129.984c-176.48 0-320 143.52-320 320 0 176.448 143.52 320 320 320 176.448 0 320-143.552 320-320s-143.584-320-320-320zM770.176 502.112l-37.44 37.792-26.496-27.904h-245.44l24.192 64h229.92c6.912 0 9.792 8 9.792 10.304s-2.272 8.896-7.456 13.504l-35.168 35.2-24.192-27.008h-169.376l20.16 70.336c18.432 10.368 20.736 10.432 20.736 12.704 0 2.304-2.88 4.032-8.064 6.944l-34.624 22.112c-3.424-21.312-13.248-80.096-25.92-112.096h-123.872c-13.28 0-27.648-1.088-42.048 0.064l16.128-29.856c9.792 4.032 26.496-2.208 38.592-2.208h107.168l-23.072-64h-146.912c-13.248 0-27.648-3.776-42.048-2.624l16.128-28.544c9.792 4.032 26.496-0.832 38.624-0.832h130.784l-16.704-56.928-33.408-18.368 29.376-23.040c3.456-2.88 6.336-3.392 8.64-3.392s4.608-4.32 7.488-1.44l13.248 7.168h190.144l-106.016-120.992c-31.68 16.704-77.216 38.016-142.304 61.056l-3.456-6.016c88.16-39.808 157.312-91.456 178.016-119.168 14.944-20.192 19.008-23.84 25.312-23.84 8.672 0 14.432 12.256 14.432 26.080 0 8.672-2.304 17.984-8.672 24.288-11.52 12.128-27.648 24.8-52.992 38.048 29.376 28.288 77.216 72.64 110.048 103.2 10.944 9.824 23.616 16.672 37.44 20.192 6.912 1.76 9.792 2.88 9.792 5.76 0 1.792-1.728 4.064-5.184 8.064l-29.984 35.616-28.16-20.288h-192.448l22.464 64h310.56c6.912 0 9.792 5.312 9.792 7.584 0 2.336-2.336 9.92-7.52 14.528z" />
<glyph unicode="&#xe91b;" glyph-name="01020030" d="M1024 448c0 282.752-229.248 512-512 512-259.872 0-473.984-193.792-507.072-444.64-0.64-4.512-1.568-8.832-2.048-13.376-1.856-17.728-2.88-35.744-2.88-53.984 0-282.784 229.248-512 512-512 18.176 0 36.128 1.024 53.888 2.88 3.68 0.384 7.328 1.184 11.008 1.696v0c252.032 31.936 447.104 246.688 447.104 507.424zM173.824 740.928l13.44-13.376-71.84-71.808c16.128 30.72 35.84 59.2 58.4 85.184zM960 448c0-112.032-41.6-214.304-109.824-292.928l-631.104 631.136c78.688 68.192 180.928 109.792 292.928 109.792 247.072 0 448-200.96 448-448zM83.488 578.592l126.304 126.304 33.984-33.952-177.472-177.472c2.976 29.312 8.896 57.792 17.184 85.12zM64.096 445.984l202.304 202.336 33.984-33.92-231.168-231.168c-2.976 20.576-5.024 41.44-5.12 62.752zM76.384 345.152l246.592 246.624 33.984-33.984-264.704-264.704c-6.304 16.896-11.616 34.24-15.872 52.064zM105.408 261.024l274.144 274.144 33.952-33.984-284.48-284.544c-8.64 14.432-16.576 29.184-23.616 44.384zM146.848 189.344l289.28 289.28 33.952-33.952-293.12-293.12c-10.656 12.096-20.768 24.64-30.112 37.792zM198.816 128.224l293.888 293.856 33.952-33.952-291.552-291.552c-12.64 9.92-24.8 20.352-36.288 31.648zM260.928 77.184l288.32 288.32 33.952-33.952-279.68-279.744c-14.72 7.744-28.928 16.096-42.592 25.376zM334.016 37.088l271.808 271.84 34.016-34.016-256.032-256.032c-17.12 5.152-33.76 11.168-49.792 18.208zM419.712 9.664l242.688 242.688 33.984-33.952-216.8-216.736c-20.32 1.472-40.384 3.904-59.872 8zM718.976 195.776l33.984-33.984-153.088-153.056c-24.672-4.896-50.080-7.456-76.032-8.192l195.136 195.232zM775.488 139.264l29.44-29.44c-41.376-35.872-89.376-64.128-141.888-83.040l112.448 112.48z" />
<glyph unicode="&#xe91c;" glyph-name="01020031" d="M512 960c-282.752 0-512-229.248-512-512 0-282.784 229.248-512 512-512s512 229.216 512 512c0 282.752-229.248 512-512 512zM960 448c0-112.032-41.632-214.304-109.824-292.928l-631.072 631.136c78.624 68.192 180.896 109.792 292.896 109.792 247.072 0 448-200.96 448-448zM64 448c0 112 41.6 214.272 109.856 292.928l631.104-631.104c-78.656-68.192-180.928-109.824-292.96-109.824-247.040 0-448 200.928-448 448z" />
<glyph unicode="&#xe91d;" glyph-name="01020040" d="M933.824 960h-843.68c-49.728 0-90.144-40.384-90.144-90.144v-843.648c0-49.824 40.416-90.208 90.144-90.208h843.648c49.824 0 90.208 40.384 90.208 90.176v843.68c0 49.76-40.384 90.144-90.176 90.144zM960 30.048c0-16.608-13.44-30.048-30.048-30.048h-835.936c-16.576 0-30.016 13.44-30.016 30.048v835.936c0 16.576 13.44 30.016 30.016 30.016h835.904c16.64 0 30.080-13.44 30.080-30.016v-835.936zM799.264 480h-191.264v158.688c0 18.432-13.632 33.312-32 33.312-18.432 0-32-14.88-32-33.312v-137.312l-47.968 39.936c-27.072 22.56-71.2 59.552-98.016 82.272l-61.184 51.616c-26.816 22.752-48.832 12.544-48.832-22.656v-140.544c0-9.312 0-20.32 0-32h-75.392c-14.752 0-26.688-14.272-26.688-32 0-17.696 11.936-32 26.688-32h75.392c0-11.68 0-22.624 0-32v-140.512c0-35.2 22.016-45.504 49.024-22.88l61.952 52c27.008 22.624 71.136 59.616 98.048 82.24l46.976 39.456v-138.304c0-18.432 13.568-33.312 32-33.312 18.368 0 32 14.88 32 33.312v160h191.264c14.752 0 26.624 14.304 26.624 32 0 17.728-11.872 32-26.624 32z" />
<glyph unicode="&#xe91e;" glyph-name="01020041" d="M933.824 960h-843.68c-49.728 0-90.144-40.384-90.144-90.176v-843.648c0-49.792 40.416-90.176 90.144-90.176h843.68c49.792 0 90.176 40.384 90.176 90.176v843.648c0 49.792-40.384 90.176-90.176 90.176zM960 30.048c0-16.608-13.44-30.048-30.048-30.048h-835.936c-16.576 0-30.016 13.44-30.016 30.048v835.904c0 16.608 13.44 30.048 30.016 30.048h835.936c16.608 0 30.048-13.44 30.048-30.048v-835.904zM799.264 480h-191.264v158.528c0 18.4-13.632 33.344-32 33.344-18.432 0-32-14.912-32-33.344v-146.016l-63.040 49.984c-27.52 21.92-72.928 57.344-100.832 78.784l-73.376 56.32c-9.6 7.328-18.56 10.88-26.208 10.88-14.688-0.032-24.544-12.864-24.544-35.968v-140.512c0-9.344 0-20.32 0-32h-43.392c-14.752 0-26.688-14.304-26.688-32s11.936-32 26.688-32h43.392c0-11.68 0-22.656 0-32v-140.512c0-23.008 9.728-35.68 24.16-35.68 7.648 0 16.672 3.552 26.272 11.072l71.136 55.488c27.744 21.664 73.12 57.056 100.864 78.752l65.568 51.168v-148.448c0-18.432 13.568-33.344 32-33.344 18.368 0 32 14.912 32 33.344v160.16h191.264c14.752 0 26.624 14.304 26.624 32s-11.872 32-26.624 32zM455.52 416l-16.512-12.736-50.784-39.392-68.224-53.216v270.688l21.12-13.536c27.648-21.28 72.704-55.136 100.096-76.832l14.080-10.976 41.248-32.256-41.024-31.744z" />
<glyph unicode="&#xe91f;" glyph-name="01020050" d="M111.328 416h80.672v-112c0-8.8 7.2-16 16-16s16 7.2 16 16v110.592l146.72-98.912c7.296-4.896 13.28-1.728 13.28 7.072v93.248h48.672c8.48 0 15.328 6.848 15.328 15.328v1.376c0 8.448-6.848 15.296-15.328 15.296h-48.672v93.568c0 8.8-6.016 11.968-13.28 7.072l-146.72-98.88v110.24c0 8.8-7.2 16-16 16s-16-7.2-16-16v-112h-80.672c-8.48 0-15.328-6.848-15.328-15.328v-1.344c0-8.48 6.848-15.328 15.328-15.328zM960 736h-896c-35.328 0-64-31.648-64-67.008v-448c0-35.328 28.672-60.992 64-60.992h896c35.328 0 64 25.664 64 60.992v448c0 35.36-28.672 67.008-64 67.008zM480 224h-416v448h416v-448zM960 224h-416v448h416v-448zM591.328 416h48.672v-93.248c0-8.8 6.016-11.968 13.28-7.072l146.72 98.912v-110.592c0-8.8 7.2-16 16-16s16 7.2 16 16v112h80.672c8.48 0 15.328 6.848 15.328 15.328v1.376c0 8.448-6.848 15.296-15.328 15.296h-80.672v112c0 8.8-7.2 16-16 16s-16-7.2-16-16v-110.336l-146.72 98.944c-7.264 4.928-13.28 1.76-13.28-7.040v-93.568h-48.672c-8.48 0-15.328-6.848-15.328-15.328v-1.344c0-8.48 6.848-15.328 15.328-15.328z" />
<glyph unicode="&#xe920;" glyph-name="01020060" d="M1024 447.36c0 0.256 0 0.448 0 0.672 0 0.192 0 0.384 0 0.64v32.192h-1.632c-17.056 266.688-238.88 478.624-509.856 478.624s-492.736-211.936-509.856-478.688h-2.656v-64h2.592c16.256-267.456 238.4-480.32 509.92-480.32s493.696 212.736 510.016 480.32h1.472v30.56zM962.176 480.8h-226.176v358.784c126.912-72.704 215.072-205.088 226.176-358.784zM352 85.216l320 320v-45.248l-320-320v45.248zM672 314.72v-45.248l-260.8-260.832c-12.064 2.816-24.064 5.824-35.744 9.568l296.544 296.512zM672 224.16v-45.248l-181.152-181.088c-14.016 0.672-27.776 1.952-41.44 3.776l222.592 222.56zM672 133.664v-107.328c-42.624-16.224-88.224-26.016-135.84-28.48l135.84 135.808zM672 450.464l-320-320v45.248l320 320v-45.248zM352 266.176l320 320v-45.248l-320-320v45.248zM352 356.672l320 320v-45.248l-320-320v45.248zM352 628.256l259.712 259.712c12.128-2.72 24.16-5.664 35.904-9.344l-295.616-295.616v45.248zM352 718.784l179.616 179.584c14.016-0.608 27.936-1.76 41.632-3.616l-221.248-221.248v45.28zM352 869.344c42.016 16.064 87.072 25.952 134.016 28.672l-134.016-133.984v105.312zM672 857.76v-45.248l-320-320v45.248l320 320zM352 416.8v30.432l320 320v-45.248l-320-320v14.816zM288 838.976v-358.144h-225.152c11.104 153.216 98.848 285.28 225.152 358.144zM62.784 416.8h225.216v-359.776c-126.784 73.088-214.624 205.888-225.216 359.776zM736 56.448v360.352h226.24c-10.624-154.304-98.912-287.392-226.24-360.352z" />
<glyph unicode="&#xe921;" glyph-name="01020061" d="M1022.432 480c-16.672 256.032-238.688 480-509.92 480s-493.216-223.968-509.888-480h-2.624v-64h2.624c16.672-256.064 238.688-480 509.92-480 271.296 0 493.28 223.936 509.92 480h1.536v31.68c0 0.064 0 0.192 0 0.32 0 0.064 0 0.192 0 0.32v31.68h-1.568zM288 839.328v-359.328h-225.184c10.816 160 98.624 286.336 225.184 359.328zM288 56.64c-126.56 72.992-214.368 199.36-225.184 359.36h225.184v-359.36zM672 25.952c-49.696-18.944-103.328-29.76-159.488-29.76-56.576 0-110.56 10.944-160.512 30.048v843.52c49.984 19.136 103.936 30.016 160.512 30.016 56.192 0 109.824-10.784 159.488-29.728v-844.096zM736 56v360h226.176c-10.848-160-99.040-287.072-226.176-360zM736 480v359.968c127.136-72.896 215.328-199.968 226.176-359.968h-226.176z" />
<glyph unicode="&#xe922;" glyph-name="01030010" d="M933.664 960h-843.296c-49.824 0-90.368-40.544-90.368-90.368v-843.296c0-49.792 40.544-90.336 90.368-90.336h843.296c49.792 0 90.336 40.544 90.336 90.336v843.296c0 49.824-40.544 90.368-90.336 90.368zM960 30.112c0-16.608-13.504-30.112-30.112-30.112h-835.776c-16.64 0-30.112 13.504-30.112 30.112v835.776c0 16.608 13.472 30.112 30.112 30.112h835.744c16.64 0 30.144-13.504 30.144-30.112v-835.776zM335.968 680.544v11.68h144.736v-11.68c-30.24 1.92-58.336-17.568-84.256-58.496l-105.856-140.416 129.6-187.2c1.408-1.984 3.584-4.896 6.496-8.768 33.088-54.624 59.744-78.976 79.904-73.12v-14.624h-168.48v14.624c28.768-1.984 41.76 3.872 38.88 17.568-1.44 19.456-25.216 61.408-71.296 125.76l-58.304 79.008-15.136-14.624v-140.416c-4.32-48.768 12.224-71.232 49.664-67.296v-14.624h-155.52v14.624c37.44-3.936 54.016 21.44 49.696 76.064v324.64c4.32 46.816-12.256 69.184-49.696 67.296v11.68h155.52v-11.68c-38.88 1.92-55.424-20.48-49.664-67.296v-155.040c109.408 130.624 156.224 196.928 140.416 198.912 0 13.632-10.816 21.44-32.416 23.392 1.44 0.032 0.032 0.032-4.288 0.032zM897.568 464.096v-14.624c-28.832 1.92-41.792-17.568-38.88-58.496v-149.184c-31.68-29.248-77.056-45.792-136.064-49.728-66.24 1.984-118.080 27.296-155.52 76.032-31.68 44.832-46.816 106.272-45.344 184.288 11.488 156 74.848 239.84 190.080 251.552 23.008 0 48.224-5.856 75.584-17.568 11.52-3.936 19.456-5.856 23.776-5.856 14.368 1.92 23.008 9.76 25.92 23.392h10.784l4.32-157.984h-12.96c-23.040 85.824-63.36 128.704-120.96 128.704-87.872-9.792-132.512-88.736-133.92-236.928 4.32-138.464 52.544-211.584 144.704-219.36 46.048 3.904 71.296 18.528 75.584 43.872v119.936c4.32 50.688-12.256 73.12-49.664 67.296v14.624h142.56z" />
<glyph unicode="&#xe923;" glyph-name="01030020" d="M159.872 683.456v11.712h152.992c97.472-3.904 147.712-48.736 150.752-134.528 0-37.056-11.264-69.248-33.76-96.544l-2.24-2.944c-21.024-31.2-61.536-45.824-121.504-43.872-12.032 0-24.736 0-38.24 0v-134.528c-4.512-50.752 13.504-73.12 54.016-67.296v-14.624h-162.016v14.624c38.976-3.936 55.456 21.44 49.504 76.064v324.672c4.512 44.832-12.032 67.264-49.504 67.264zM267.872 642.528v-193.056c12-1.984 23.232-2.944 33.76-2.944 65.984 0 99.008 38.016 99.008 114.080-1.504 70.176-38.24 106.24-110.24 108.224-16.544 3.872-24.032-4.864-22.528-26.304zM479.36 200.832v14.624c38.976-3.936 56.256 18.496 51.744 67.296v333.44c5.984 46.816-11.264 69.184-51.744 67.296v11.68h155.264c151.488-1.952 228-84.8 229.504-248.64-7.52-159.904-80.992-241.824-220.512-245.696h-164.256zM589.632 639.584v-380.256c-3.040-23.392 8.224-34.112 33.76-32.192 116.992 0 176.224 73.12 177.76 219.36 0 70.208-17.28 126.752-51.744 169.664-30.016 37.024-74.24 54.56-132.736 52.672-19.552 0-28.576-9.76-27.040-29.248zM933.664 960h-843.296c-49.824 0-90.368-40.544-90.368-90.368v-843.296c0-49.792 40.544-90.336 90.368-90.336h843.296c49.792 0 90.336 40.544 90.336 90.336v843.296c0 49.824-40.544 90.368-90.336 90.368zM960 30.112c0-16.608-13.504-30.112-30.112-30.112h-835.776c-16.64 0-30.112 13.504-30.112 30.112v835.776c0 16.608 13.472 30.112 30.112 30.112h835.744c16.64 0 30.144-13.504 30.144-30.112v-835.776z" />
<glyph unicode="&#xe924;" glyph-name="01030030" d="M469.888 332.48h12.96l-12.96-131.616h-313.216v11.68l241.92 456.32h-120.928c-59.072 1.92-90.016-31.232-92.864-99.424h-15.136l10.784 125.76h291.616v-8.8l-239.776-456.32h142.56c53.248-3.936 84.928 30.24 95.040 102.4zM497.984 200.832v14.624c37.408-3.936 54.016 18.496 49.664 67.296v333.44c5.76 46.816-10.784 69.184-49.664 67.296v11.68h149.024c145.44-1.952 218.88-84.8 220.32-248.64-7.232-159.904-77.76-241.824-211.68-245.696h-157.664zM603.808 639.584v-380.256c-2.912-23.392 7.872-34.112 32.384-32.192 112.352 0 169.184 73.12 170.656 219.36 0 70.208-16.576 126.752-49.696 169.664-28.8 37.024-71.296 54.56-127.424 52.672-18.72 0-27.392-9.76-25.92-29.248zM1024 869.632c0 49.888-40.448 90.368-90.336 90.368h-843.328c-49.888 0-90.336-40.48-90.336-90.368v-843.264c0-49.888 40.448-90.368 90.336-90.368h843.328c49.888 0 90.336 40.48 90.336 90.368v843.264zM960 30.112c0-16.608-13.472-30.112-30.112-30.112h-835.776c-16.64 0-30.112 13.504-30.112 30.112v835.776c0 16.608 13.472 30.112 30.112 30.112h835.744c16.672 0 30.144-13.504 30.144-30.112v-835.776z" />
<glyph unicode="&#xe925;" glyph-name="01030040" d="M154.528 200.832v14.624c37.44-3.936 53.248 21.44 47.488 76.064v324.672c5.76 46.816-10.048 69.184-47.488 67.296v11.68h153.344v-11.68c-36 0-51.84-22.432-47.488-67.296v-146.24h166.304v146.24c4.32 46.816-11.52 69.184-47.52 67.296v11.68h153.376v-11.68c-37.472 1.92-54.016-20.48-49.696-67.296v-333.44c-4.32-46.816 12.224-69.248 49.696-67.296v-14.624h-153.376v14.624c37.44-3.936 53.28 21.44 47.52 76.064v146.24h-166.304v-155.040c-4.352-46.816 11.488-69.248 47.488-67.296v-14.624h-153.344zM549.824 683.456v11.712h155.488c96.48 0 144.704-41.952 144.704-125.76 0-58.496-24.512-94.624-73.44-108.256 61.92-19.488 92.864-62.4 92.864-128.672-5.76-85.856-50.4-129.728-133.92-131.616h-185.76v14.624c40.288-5.856 58.304 16.544 54.016 67.296v333.44c4.352 48.672-13.696 71.104-53.952 67.232zM659.968 443.616v-184.288c-2.912-25.376 10.784-36.096 41.024-32.192 69.12 0 103.68 36.064 103.68 108.256 0 50.688-18.016 83.808-54.016 99.424-17.248 5.856-47.488 8.8-90.688 8.8zM659.968 645.44v-172.576l51.84 2.912c54.688 0 82.048 30.208 82.048 90.688 0 66.272-32.416 100.416-97.184 102.368-11.52 0-19.424 0-23.744 0-8.64 0-12.96-7.808-12.96-23.392zM1024 869.632c0 49.888-24.448 90.368-74.368 90.368h-843.328c-49.856 0-106.304-40.48-106.304-90.368v-843.264c0-49.888 56.448-90.368 106.304-90.368h843.328c49.92 0 74.368 40.48 74.368 90.368v843.264zM960 30.112c0-16.608-13.504-30.112-30.112-30.112h-835.776c-16.608 0-30.112 13.504-30.112 30.112v835.776c0 16.608 13.504 30.112 30.112 30.112h835.744c16.64 0 30.144-13.504 30.144-30.112v-835.776z" />
<glyph unicode="&#xe926;" glyph-name="01030050" d="M530.368 695.168v-11.68c-25.952 3.872-53.312-19.488-82.080-70.176l-79.904-137.504 105.824-204.736c17.28-39.040 37.44-57.536 60.512-55.552v-14.624h-164.16v14.624c1.408 0 2.88 0 4.32 0 28.768 0 41.76 8.768 38.88 26.304 0 9.76-9.376 33.152-28.064 70.208l-51.84 105.28-66.976-111.136c-1.44-1.984-3.616-4.896-6.464-8.768-14.432-29.248-21.632-47.808-21.632-55.584 0-17.536 13.696-26.304 41.056-26.304v-14.624h-127.456v14.624c17.28-7.808 43.904 20.48 79.904 84.8l86.4 143.328-60.512 119.872c-40.32 87.744-73.44 127.712-99.328 119.936v11.712h166.304v-11.68c-1.44 0-2.912 0-4.32 0-28.8 0-41.792-8.768-38.88-26.304-2.912-7.808 12.96-43.872 47.488-108.256l23.776-46.784 62.624 105.28c14.368 19.456 21.6 36.064 21.6 49.76 0 13.6-10.784 22.368-32.384 26.304-2.912 0-5.056 0-6.496 0v11.68h131.808zM551.968 683.456v11.712h155.488c96.48 0 144.704-41.952 144.704-125.76 0-58.496-24.512-94.624-73.44-108.256 61.92-19.488 92.864-62.4 92.864-128.672-5.76-85.856-50.4-129.728-133.92-131.616h-185.76v14.624c40.288-5.856 58.304 16.544 54.016 67.296v333.44c4.352 48.672-13.664 71.104-53.952 67.232zM662.112 443.616v-184.288c-2.912-25.376 10.784-36.096 41.024-32.192 69.12 0 103.68 36.064 103.68 108.256 0 50.688-18.016 83.808-54.016 99.424-17.248 5.856-47.488 8.8-90.688 8.8zM662.112 645.44v-172.576l51.84 2.912c54.688 0 82.048 30.208 82.048 90.688 0 66.272-32.416 100.416-97.184 102.368-11.52 0-19.424 0-23.744 0-8.64 0-12.96-7.808-12.96-23.392zM1024 885.632c0 49.888-24.448 74.368-74.368 74.368h-843.328c-49.856 0-106.304-24.48-106.304-74.368v-843.264c0-49.888 56.448-106.368 106.304-106.368h843.328c49.92 0 74.368 56.48 74.368 106.368v843.264zM960 30.112c0-16.608-13.504-30.112-30.112-30.112h-835.776c-16.608 0-30.112 13.504-30.112 30.112v835.776c0 16.608 13.504 30.112 30.112 30.112h835.744c16.64 0 30.144-13.504 30.144-30.112v-835.776z" />
<glyph unicode="&#xe927;" glyph-name="01030060" d="M171.136 190.72v14.624c37.408-3.936 54.016 18.496 49.664 67.296v333.44c5.76 46.816-10.784 69.184-49.664 67.296v11.648h149.024c145.44-1.952 218.88-84.8 220.32-248.64-7.232-159.904-77.76-241.824-211.68-245.696h-157.664zM276.96 629.472v-380.256c-2.912-23.392 7.872-34.112 32.384-32.192 112.352 0 169.184 73.12 170.656 219.36 0 70.208-16.576 126.752-49.696 169.664-28.8 37.024-71.296 54.56-127.424 52.672-18.72 0-27.392-9.792-25.92-29.248zM825.6 363.296h-12.96c-1.44 54.592-21.6 77.984-60.48 70.208l-82.080 2.912v-163.776c-2.912-46.816 14.368-69.248 51.84-67.296v-14.624h-155.52v14.624c35.968-3.936 51.808 21.44 47.488 76.064v324.64c4.32 46.816-11.52 69.184-47.488 67.296v11.68h293.76l2.144-105.28h-15.136c0 60.416-28.064 86.752-84.224 78.976h-73.472c-14.4 1.92-20.864-6.848-19.424-26.304v-166.752h82.080c38.88-5.856 59.040 18.528 60.48 73.12h12.992v-175.488zM1024 869.632c0 49.888-40.448 90.368-90.336 90.368h-843.328c-49.888 0-90.336-40.48-90.336-90.368v-843.264c0-49.888 40.448-90.368 90.336-90.368h843.328c49.888 0 90.336 40.48 90.336 90.368v843.264zM960 30.112c0-16.608-13.504-30.112-30.112-30.112h-835.776c-16.608 0-30.112 13.504-30.112 30.112v835.776c0 16.608 13.504 30.112 30.112 30.112h835.744c16.64 0 30.144-13.504 30.144-30.112v-835.776z" />
<glyph unicode="&#xe928;" glyph-name="01030070" d="M88.768 192.192v14.624c35.488-3.936 50.496 21.44 45.056 76.064v324.64c5.44 46.816-9.568 69.184-45.056 67.296v11.68h145.376v-11.68c-34.112 0-49.12-22.432-45.024-67.296v-146.24h157.664v146.24c4.096 46.816-10.944 69.184-45.056 67.296v11.68h145.376v-11.68c-35.488 1.92-51.2-20.48-47.104-67.296v-333.44c-4.096-46.816 11.584-69.248 47.104-67.296v-14.624h-145.376v14.624c35.488-3.936 50.496 21.44 45.056 76.064v146.24h-157.664v-155.040c-4.096-46.816 10.912-69.248 45.024-67.296v-14.624h-145.376zM944.672 686.496v-11.68c-23.264-3.936-37.568-19.488-43.008-46.816-6.848-29.248-17.792-73.12-32.768-131.616-35.488-138.464-60.736-240.832-75.744-307.136h-8.192c-20.48 79.936-48.48 183.296-83.936 310.048l-79.872-310.048h-8.192c-9.568 40.96-30.016 122.88-61.408 245.728-20.512 79.936-33.472 130.624-38.912 152.096-15.040 60.416-33.472 89.664-55.296 87.744v11.68h128.992v-11.68c-25.984-1.984-37.568-10.752-34.816-26.304 0-5.888 1.344-14.624 4.096-26.336 1.344-1.984 2.016-3.936 2.016-5.856l75.744-283.712 55.328 213.536-16.416 61.408c-9.568 50.688-27.328 73.12-53.216 67.296v11.648h139.232v-11.68c-25.952 0-38.912-9.792-38.912-29.248 0-5.856 2.72-19.488 8.192-40.928 2.72-7.808 4.768-13.696 6.144-17.568l67.552-254.464 65.536 251.52c6.816 19.456 10.208 38.016 10.208 55.584 1.344 21.44-10.944 33.12-36.832 35.104v11.68h104.48zM1024 869.632c0 49.888-40.448 90.368-90.336 90.368h-843.328c-49.888 0-90.336-40.48-90.336-90.368v-843.264c0-49.888 40.448-90.368 90.336-90.368h843.328c49.888 0 90.336 40.48 90.336 90.368v843.264zM960 30.112c0-16.608-13.504-30.112-30.112-30.112h-835.776c-16.608 0-30.112 13.504-30.112 30.112v835.776c0 16.608 13.504 30.112 30.112 30.112h835.744c16.64 0 30.144-13.504 30.144-30.112v-835.776z" />
<glyph unicode="&#xe929;" glyph-name="01030080" d="M153.12 200.832v14.624c38.976-3.936 56.256 18.496 51.744 67.296v333.44c5.984 46.816-11.264 69.184-51.744 67.296v11.68h155.264c151.488-1.952 228-84.8 229.504-248.64-7.52-159.904-80.992-241.824-220.512-245.696h-164.256zM263.36 639.584v-380.256c-3.040-23.392 8.224-34.112 33.76-32.192 116.992 0 176.224 73.12 177.76 219.36 0 70.208-17.28 126.752-51.744 169.664-30.016 37.024-74.24 54.56-132.736 52.672-19.552 0-28.544-9.76-27.040-29.248zM567.136 683.456v11.712h152.992c97.472-3.904 147.712-48.768 150.752-134.528 0-37.056-11.264-69.248-33.76-96.544l-2.24-2.944c-21.024-31.2-61.536-45.824-121.504-43.872-12.032 0-24.736 0-38.24 0v-134.528c-4.512-50.752 13.504-73.12 54.016-67.296v-14.624h-162.016v14.624c38.976-3.936 55.456 21.44 49.504 76.064v324.672c4.48 44.832-12.032 67.264-49.504 67.264zM675.136 642.528v-193.056c12-1.984 23.232-2.944 33.76-2.944 65.984 0 99.008 38.016 99.008 114.080-1.504 70.176-38.24 106.24-110.24 108.224-16.576 3.872-24.064-4.864-22.528-26.304zM1024 869.632c0 49.888-40.448 90.368-90.336 90.368h-843.328c-49.888 0-90.336-40.48-90.336-90.368v-843.264c0-49.888 40.448-90.368 90.336-90.368h843.328c49.888 0 90.336 40.48 90.336 90.368v843.264zM960 30.112c0-16.608-13.472-30.112-30.112-30.112h-835.776c-16.64 0-30.112 13.504-30.112 30.112v835.776c0 16.608 13.472 30.112 30.112 30.112h835.744c16.672 0 30.144-13.504 30.144-30.112v-835.776z" />
<glyph unicode="&#xe92a;" glyph-name="01030090" d="M157.76 680.544v11.68h155.52c96.48 0 144.704-41.952 144.704-125.76 0-58.496-24.512-94.624-73.44-108.256 61.92-19.488 92.864-62.4 92.864-128.672-5.792-85.856-50.432-129.728-133.92-131.616h-185.728v14.624c40.32-5.856 58.304 16.544 54.016 67.296v333.44c4.288 48.704-13.728 71.136-54.016 67.264zM267.904 440.672v-184.288c-2.912-25.376 10.816-36.096 41.056-32.192 69.088 0 103.648 36.064 103.648 108.256 0 50.688-18.016 83.808-54.016 99.424-17.248 5.888-47.456 8.8-90.688 8.8zM267.904 642.496v-172.576l51.84 2.912c54.72 0 82.080 30.208 82.080 90.688 0 66.272-32.416 100.416-97.216 102.368-11.52 0-19.424 0-23.744 0-8.608 0.032-12.96-7.808-12.96-23.392zM859.744 534.272h-12.928c-18.752 91.616-59.072 138.432-120.96 140.416-33.152-1.984-61.216-17.568-84.256-46.816-30.208-39.040-45.344-100.448-45.344-184.288 2.848-142.336 48.224-216.448 136.064-222.272 48.928 0 90.016 25.312 123.136 76.032l10.816-14.624c-36.032-58.496-85.696-88.672-149.056-90.656-120.928 5.856-182.88 90.656-185.76 254.464 7.2 157.952 69.856 243.744 187.936 257.408 23.008 0 49.664-5.856 79.904-17.568 8.64-3.936 14.368-5.856 17.28-5.856 14.368 0 23.008 7.776 25.92 23.392h10.816l6.432-169.632zM1024 869.632c0 49.888-40.448 90.368-90.336 90.368h-843.328c-49.888 0-90.336-40.48-90.336-90.368v-843.264c0-49.888 40.448-90.368 90.336-90.368h843.328c49.888 0 90.336 40.48 90.336 90.368v843.264zM960 30.112c0-16.608-13.472-30.112-30.112-30.112h-835.776c-16.64 0-30.112 13.504-30.112 30.112v835.776c0 16.608 13.472 30.112 30.112 30.112h835.744c16.672 0 30.144-13.504 30.144-30.112v-835.776z" />
<glyph unicode="&#xe92b;" glyph-name="01030100" d="M485.888 376.32h-13.504c-1.504 54.624-22.496 78.016-63.008 70.24l-85.504 2.88v-163.744c-3.008-46.816 15.008-69.248 54.016-67.328v-14.624h-162.016v14.624c37.504-3.936 54.016 21.44 49.504 76.064v324.704c4.512 46.816-12 69.184-49.504 67.232v11.68h306.016l2.24-105.248h-15.744c0 60.384-29.248 86.752-87.744 78.944h-76.512c-15.008 1.952-21.76-6.816-20.256-26.304v-166.752h85.504c40.512-5.824 61.504 18.56 63.008 73.12h13.504v-175.488zM754.112 619.136v-277.888c-1.504-91.68-33.76-139.36-96.736-143.328-21.056 0-36 4.864-44.992 14.624-7.552 9.696-11.264 21.44-11.264 35.072 3.008 23.424 11.264 36.064 24.736 38.048 14.944 0 25.504-12.736 31.488-38.048 4.512-17.568 9.76-26.304 15.744-26.304 14.944 0 22.496 16.576 22.496 49.76v348.064c5.952 46.816-12.064 69.184-54.016 67.264v11.648h166.496v-11.68c-41.952 1.952-59.936-20.416-53.952-67.232zM1024 869.632c0 49.888-40.448 90.368-90.304 90.368h-843.392c-49.856 0-90.304-40.48-90.304-90.368v-843.264c0-49.888 40.448-90.368 90.304-90.368h843.36c49.888 0 90.336 40.48 90.336 90.368v843.264zM960 30.112c0-16.608-13.472-30.112-30.112-30.112h-835.776c-16.64 0-30.112 13.504-30.112 30.112v835.776c0 16.608 13.472 30.112 30.112 30.112h835.744c16.672 0 30.144-13.504 30.144-30.112v-835.776z" />
<glyph unicode="&#xe92c;" glyph-name="01030110" d="M466.88 382.176h-13.504c-1.504 54.592-22.496 77.984-63.008 70.208l-85.504 2.912v-163.776c-3.040-46.816 14.976-69.248 54.016-67.296v-14.624h-162.016v14.624c37.472-3.936 54.016 21.44 49.504 76.064v324.672c4.512 46.816-12.032 69.184-49.504 67.296v11.68h306.016l2.24-105.28h-15.744c0 60.416-29.248 86.752-87.744 78.976h-76.512c-15.008 1.92-21.76-6.848-20.256-26.304v-166.752h85.504c40.512-5.856 61.504 18.528 63.008 73.12h13.504v-175.52zM800.128 703.936l13.504-157.984h-13.504c-18.016 83.84-54.016 126.752-108 128.704-37.536-3.936-57.024-27.328-58.496-70.208 0-35.104 28.48-74.112 85.504-116.992 72-54.592 108-109.216 108-163.776-7.52-83.872-48.032-127.68-121.504-131.616-18.016 0-39.776 3.936-65.248 11.68-12.032 5.856-20.256 8.768-24.736 8.768-10.528-1.984-16.544-7.808-18.016-17.568h-13.504l-15.744 152.128h13.504c25.472-87.744 64.48-131.616 116.992-131.616 43.456 1.92 66.72 29.248 69.76 81.888 8.992 37.024-22.496 80.896-94.496 131.616-63.008 42.88-93.024 92.608-90.016 149.184 2.976 77.984 38.24 119.936 105.76 125.792 13.504 0 32.224-5.856 56.256-17.568 11.968-5.856 19.456-8.768 22.496-8.768 11.968 0 18.72 8.768 20.256 26.336h11.232zM1024 869.632c0 49.888-40.448 90.368-90.304 90.368h-843.392c-49.856 0-90.304-40.48-90.304-90.368v-843.264c0-49.888 40.448-90.368 90.304-90.368h843.36c49.888 0 90.336 40.48 90.336 90.368v843.264zM960 30.112c0-16.608-13.472-30.112-30.112-30.112h-835.776c-16.64 0-30.112 13.504-30.112 30.112v835.776c0 16.608 13.472 30.112 30.112 30.112h835.744c16.672 0 30.144-13.504 30.144-30.112v-835.776z" />
<glyph unicode="&#xe92d;" glyph-name="01030120" d="M159.872 740.832v11.712h152.992c97.504-3.904 147.712-48.736 150.752-134.528 0-37.056-11.264-69.248-33.76-96.544l-2.24-2.944c-21.024-31.2-61.536-45.824-121.504-43.872-12.032 0-24.736 0-38.24 0v-134.528c-4.512-50.752 13.504-73.12 54.016-67.296v-14.624h-162.016v14.624c39.008-3.936 55.456 21.44 49.504 76.064v324.672c4.512 44.832-12.032 67.264-49.504 67.264zM267.872 699.904v-193.056c12-1.984 23.264-2.944 33.76-2.944 66.016 0 99.008 38.016 99.008 114.080-1.504 70.176-38.24 106.24-110.24 108.224-16.544 3.872-24.032-4.864-22.528-26.304zM479.36 258.208v14.624c39.008-3.936 56.256 18.496 51.744 67.296v333.44c5.984 46.816-11.264 69.184-51.744 67.296v11.68h155.264c151.488-1.952 228-84.8 229.504-248.64-7.52-159.904-80.992-241.824-220.512-245.696h-164.256zM589.632 696.96v-380.256c-3.040-23.392 8.224-34.112 33.76-32.192 116.992 0 176.256 73.12 177.76 219.36 0 70.208-17.248 126.752-51.744 169.664-30.016 37.024-74.24 54.56-132.736 52.672-19.552 0-28.544-9.76-27.040-29.248zM1024 869.632c0 49.888-40.448 90.368-90.336 90.368h-843.328c-49.888 0-90.336-40.48-90.336-90.368v-843.264c0-49.888 40.448-90.368 90.336-90.368h843.328c49.888 0 90.336 40.48 90.336 90.368v843.264zM960 30.112c0-16.608-13.504-30.112-30.112-30.112h-835.776c-16.608 0-30.112 13.504-30.112 30.112v835.776c0 16.608 13.504 30.112 30.112 30.112h835.744c16.64 0 30.144-13.504 30.144-30.112v-835.776zM627.040 139.52c2.272-2.016 3.328-3.328 3.328-4.352s-1.312-1.312-4.384-1.312h-137.888l-10.016-36.064h85.44l12.576 10.752 13.312-14.048c1.536-1.824 2.304-2.816 2.304-3.584 0-1.28-1.312-1.792-4.384-2.528-6.112-1.568-11.744-4.64-16.64-8.96-14.56-13.568-35.808-33.28-48.864-45.824 11.264-5.888 18.432-11.488 23.552-16.864 2.816-2.816 3.808-6.912 3.808-10.752 0-6.144-2.56-11.52-6.368-11.52-2.816 0-4.64 1.824-11.264 10.752-9.248 12.32-39.936 35.552-79.072 53.248l1.504 3.328c28.928-10.24 49.12-18.432 63.232-25.856l47.104 56.288h-84.448l-5.92-5.632c-1.28-1.28-2.272-1.824-3.328-1.824-0.992 0-2.272 0.544-3.808 1.824l-13.056 10.752 14.848 9.184 7.392 27.36h-58.048c-5.376 0-12.8-0.992-17.12-2.816l-7.2 9.504c6.4-0.544 12.8-1.024 18.688-1.024h65.248l10.24 39.392h-47.616c-5.376 0-12.768-1.024-17.12-2.816l-7.2 9.44c6.432-0.512 12.8-0.992 18.688-0.992h55.040c5.632 22.016 10.016 41.184 11.52 50.656l15.328-8.96c2.304-1.248 3.584-2.304 3.584-3.328s-1.024-1.536-9.216-6.112l-8.928-32.256h75.2l10.752 13.824 15.616-13.824c2.304-2.048 3.328-3.328 3.328-4.384 0-0.992-1.248-1.248-4.32-1.248h-102.112l-10.752-39.424h108.992l11.776 14.592 16.672-14.592z" />
<glyph unicode="&#xe92e;" glyph-name="01030130" d="M469.888 398.56h12.96l-12.96-131.616h-313.216v11.68l241.92 456.32h-120.928c-59.072 1.92-90.016-31.232-92.864-99.424h-15.136l10.784 125.76h291.616v-8.736l-239.776-456.32h142.56c53.248-3.968 84.928 30.176 95.040 102.336zM497.984 266.944v14.624c37.408-3.936 54.016 18.496 49.664 67.296v333.408c5.76 46.816-10.784 69.184-49.664 67.296v11.68h149.024c145.44-1.952 218.88-84.8 220.32-248.64-7.232-159.904-77.76-241.824-211.68-245.696h-157.664zM603.808 705.696v-380.256c-2.912-23.392 7.872-34.112 32.384-32.192 112.352 0 169.184 73.12 170.656 219.36 0 70.208-16.576 126.752-49.696 169.664-28.8 37.024-71.296 54.56-127.424 52.672-18.72 0-27.392-9.792-25.92-29.248zM1024 869.632c0 49.888-40.448 90.368-90.336 90.368h-843.328c-49.888 0-90.336-40.48-90.336-90.368v-843.264c0-49.888 40.448-90.368 90.336-90.368h843.328c49.888 0 90.336 40.48 90.336 90.368v843.264zM960 30.112c0-16.608-13.504-30.112-30.112-30.112h-835.776c-16.608 0-30.112 13.504-30.112 30.112v835.776c0 16.608 13.504 30.112 30.112 30.112h835.744c16.64 0 30.144-13.504 30.144-30.112v-835.776zM627.040 145.376c2.272-2.048 3.328-3.328 3.328-4.384 0-0.992-1.312-1.248-4.384-1.248h-137.888l-10.016-36.096h85.44l12.576 10.752 13.312-14.048c1.536-1.792 2.304-2.816 2.304-3.584 0-1.28-1.312-1.792-4.384-2.56-6.112-1.536-11.744-4.608-16.64-8.928-14.56-13.568-35.808-33.248-48.864-45.824 11.264-5.888 18.432-11.488 23.552-16.864 2.816-2.816 3.808-6.912 3.808-10.752 0-6.112-2.56-11.488-6.368-11.488-2.816 0-4.64 1.792-11.264 10.752-9.248 12.256-39.936 35.552-79.072 53.184l1.504 3.328c28.928-10.208 49.12-18.4 63.232-25.856l47.104 56.288h-84.448l-5.92-5.632c-1.28-1.28-2.272-1.792-3.328-1.792-0.992 0-2.272 0.512-3.808 1.792l-13.056 10.752 14.848 9.216 7.392 27.36h-58.048c-5.376 0-12.8-1.024-17.12-2.816l-7.2 9.44c6.4-0.512 12.8-0.992 18.688-0.992h65.248l10.24 39.36h-47.616c-5.376 0-12.768-0.992-17.12-2.816l-7.2 9.504c6.432-0.544 12.8-1.024 18.688-1.024h55.040c5.632 22.016 10.016 41.184 11.52 50.656l15.328-8.928c2.304-1.312 3.584-2.304 3.584-3.328s-1.024-1.536-9.216-6.144l-8.928-32.224h75.2l10.752 13.824 15.616-13.824c2.304-2.016 3.328-3.328 3.328-4.352s-1.248-1.312-4.32-1.312h-102.112l-10.752-39.36h108.992l11.776 14.56 16.672-14.592z" />
<glyph unicode="&#xe92f;" glyph-name="01030140" d="M141.216 275.712v14.624c37.44-3.936 53.28 21.44 47.52 76.064v324.672c5.76 46.816-10.080 69.184-47.52 67.296v11.648h153.376v-11.68c-36 0-51.84-22.432-47.52-67.296v-146.24h166.304v146.24c4.352 46.816-11.52 69.184-47.488 67.296v11.68h153.344v-11.68c-37.44 1.92-54.016-20.48-49.664-67.296v-333.44c-4.352-46.816 12.224-69.248 49.664-67.296v-14.624h-153.344v14.624c37.44-3.936 53.248 21.44 47.488 76.064v146.24h-166.304v-155.040c-4.32-46.816 11.52-69.248 47.52-67.296v-14.624h-153.376zM536.512 758.336v11.68h155.52c96.48 0 144.704-41.952 144.704-125.76 0-58.496-24.512-94.624-73.44-108.256 61.92-19.488 92.864-62.4 92.864-128.672-5.792-85.856-50.432-129.728-133.92-131.616h-185.792v14.624c40.32-5.856 58.304 16.544 54.016 67.296v333.44c4.352 48.704-13.664 71.136-53.952 67.264zM646.656 518.496v-184.288c-2.912-25.376 10.816-36.096 41.056-32.192 69.088 0 103.648 36.064 103.648 108.256 0 50.688-18.016 83.808-54.016 99.424-17.248 5.856-47.456 8.8-90.688 8.8zM646.656 720.32v-172.576l51.84 2.912c54.72 0 82.080 30.208 82.080 90.688 0 66.272-32.416 100.416-97.216 102.368-11.52 0-19.424 0-23.744 0-8.608 0-12.96-7.808-12.96-23.392zM1024 869.632c0 49.888-40.448 90.368-90.336 90.368h-843.328c-49.888 0-90.336-40.48-90.336-90.368v-843.264c0-49.888 40.448-90.368 90.336-90.368h843.328c49.888 0 90.336 40.48 90.336 90.368v843.264zM960 30.112c0-16.608-13.504-30.112-30.112-30.112h-835.776c-16.608 0-30.112 13.504-30.112 30.112v835.776c0 16.608 13.504 30.112 30.112 30.112h835.744c16.64 0 30.144-13.504 30.144-30.112v-835.776zM606.56 154.144c2.304-2.016 3.328-3.328 3.328-4.352s-1.248-1.312-4.32-1.312h-137.952l-9.984-36.064h85.472l12.544 10.752 13.28-14.048c1.568-1.824 2.304-2.816 2.304-3.584 0-1.28-1.248-1.792-4.352-2.528-6.144-1.568-11.776-4.64-16.64-8.96-14.592-13.568-35.84-33.28-48.864-45.824 11.296-5.888 18.4-11.488 23.52-16.864 2.816-2.816 3.872-6.912 3.872-10.752 0-6.144-2.56-11.52-6.432-11.52-2.816 0-4.608 1.824-11.264 10.752-9.184 12.32-39.904 35.552-79.072 53.248l1.568 3.328c28.864-10.24 49.12-18.432 63.2-25.856l47.072 56.288h-84.448l-5.888-5.632c-1.28-1.28-2.304-1.824-3.328-1.824s-2.304 0.544-3.84 1.824l-13.024 10.752 14.816 9.184 7.424 27.36h-58.080c-5.376 0-12.768-0.992-17.152-2.816l-7.136 9.504c6.368-0.544 12.736-1.024 18.656-1.024h65.216l10.24 39.392h-47.552c-5.376 0-12.8-1.024-17.152-2.816l-7.168 9.44c6.368-0.512 12.768-0.992 18.688-0.992h55.008c5.632 22.016 9.984 41.184 11.488 50.656l15.36-8.96c2.272-1.248 3.552-2.304 3.552-3.328s-1.024-1.536-9.216-6.112l-8.96-32.256h75.264l10.752 13.824 15.584-13.824c2.272-2.048 3.328-3.328 3.328-4.384 0-0.992-1.312-1.248-4.384-1.248h-102.048l-10.752-39.392h108.992l11.744 14.592 16.736-14.624z" />
<glyph unicode="&#xe930;" glyph-name="01030150" d="M530.368 780.704v-11.68c-25.952 3.872-53.312-19.488-82.048-70.176l-79.936-137.504 105.824-204.736c17.312-39.040 37.44-57.536 60.512-55.552v-14.624h-164.192v14.624c1.44 0 2.88 0 4.32 0 28.8 0 41.76 8.768 38.944 26.304 0 9.76-9.44 33.152-28.128 70.208l-51.808 105.28-67.008-111.136c-1.44-1.984-3.552-4.896-6.432-8.768-14.432-29.248-21.632-47.808-21.632-55.584 0-17.536 13.696-26.304 41.056-26.304v-14.624h-127.456v14.624c17.248-7.808 43.872 20.48 79.936 84.8l86.368 143.328-60.512 119.904c-40.32 87.744-73.44 127.712-99.36 119.936v11.68h166.368v-11.68c-1.504 0-2.944 0-4.384 0-28.8 0-41.76-8.768-38.88-26.304-2.88-7.808 12.992-43.872 47.552-108.256l23.744-46.784 62.624 105.28c14.368 19.456 21.632 36.064 21.632 49.76 0 13.6-10.816 22.368-32.448 26.304-2.88 0-5.056 0-6.432 0v11.68h131.776zM551.936 769.024v11.68h155.552c96.448 0 144.672-41.952 144.672-125.76 0-58.496-24.512-94.624-73.44-108.256 61.952-19.488 92.864-62.4 92.864-128.672-5.76-85.856-50.432-129.728-133.888-131.616h-185.824v14.624c40.32-5.856 58.304 16.544 54.016 67.296v333.44c4.352 48.704-13.632 71.136-53.952 67.264zM662.112 529.184v-184.288c-2.944-25.376 10.816-36.096 41.056-32.192 69.056 0 103.616 36.064 103.616 108.256 0 50.688-18.016 83.808-54.016 99.424-17.216 5.856-47.456 8.8-90.656 8.8zM662.112 731.008v-172.576l51.808 2.912c54.752 0 82.112 30.208 82.112 90.688 0 66.272-32.448 100.416-97.248 102.368-11.488 0-19.424 0-23.744 0-8.608 0-12.928-7.808-12.928-23.392zM1024 869.632c0 49.888-40.448 90.368-90.336 90.368h-843.328c-49.888 0-90.336-40.48-90.336-90.368v-843.264c0-49.888 40.448-90.368 90.336-90.368h843.328c49.888 0 90.336 40.48 90.336 90.368v843.264zM960 30.112c0-16.608-13.504-30.112-30.112-30.112h-835.776c-16.608 0-30.112 13.504-30.112 30.112v835.776c0 16.608 13.504 30.112 30.112 30.112h835.744c16.64 0 30.144-13.504 30.144-30.112v-835.776zM627.008 164.832c2.304-2.016 3.328-3.328 3.328-4.352s-1.248-1.312-4.32-1.312h-137.952l-9.984-36.064h85.472l12.544 10.752 13.28-14.048c1.568-1.824 2.304-2.816 2.304-3.584 0-1.28-1.248-1.792-4.352-2.528-6.144-1.568-11.776-4.64-16.64-8.96-14.592-13.568-35.84-33.28-48.864-45.824 11.296-5.888 18.4-11.488 23.52-16.864 2.816-2.816 3.872-6.912 3.872-10.752 0-6.144-2.56-11.52-6.432-11.52-2.816 0-4.608 1.824-11.264 10.752-9.184 12.32-39.904 35.552-79.072 53.248l1.568 3.328c28.864-10.24 49.12-18.432 63.2-25.856l47.072 56.288h-84.448l-5.888-5.632c-1.28-1.28-2.304-1.824-3.328-1.824s-2.304 0.544-3.84 1.824l-13.024 10.752 14.816 9.184 7.424 27.36h-58.080c-5.376 0-12.768-0.992-17.152-2.816l-7.136 9.504c6.368-0.544 12.736-1.024 18.656-1.024h65.216l10.24 39.392h-47.552c-5.376 0-12.8-1.024-17.152-2.816l-7.168 9.44c6.368-0.512 12.768-0.992 18.688-0.992h55.008c5.632 22.016 9.984 41.184 11.488 50.656l15.36-8.96c2.272-1.248 3.552-2.304 3.552-3.328s-1.024-1.536-9.216-6.112l-8.96-32.256h75.264l10.752 13.824 15.584-13.824c2.272-2.048 3.328-3.328 3.328-4.384 0-0.992-1.312-1.248-4.384-1.248h-102.048l-10.752-39.392h108.992l11.744 14.592 16.736-14.624z" />
<glyph unicode="&#xe931;" glyph-name="02010010" d="M997.12 480h-970.272c-14.848 0-26.848-17.152-26.848-32s12.032-32 26.88-32h970.24c14.816 0 26.88 17.152 26.88 32s-12.064 32-26.88 32z" />
<glyph unicode="&#xe932;" glyph-name="02020010" d="M968 960h-888c-35.2 0-80-28.8-80-64v-896c0-35.2 44.8-64 80-64h896c35.2 0 48 28.8 48 64v896c0 35.2-20.8 64-56 64zM482.752 448l-418.752-418.752v837.504l418.752-418.752zM125.248 896h805.504l-402.752-402.752-402.752 402.752zM528 402.752l402.752-402.752h-805.504l402.752 402.752zM573.248 448l386.752 386.752v-773.504l-386.752 386.752z" />
<glyph unicode="&#xe933;" d="M968 960h-909.92c-40.096 0-58.080-28.8-58.080-64v-896c0-35.2 19.936-64 55.104-64h920.896c30.016 0 48 28.8 48 64v896c0 35.2-20.8 64-56 64zM482.752 448l-418.752-418.752v837.504l418.752-418.752zM125.248 896h805.504l-402.752-402.752-402.752 402.752zM528 402.752l402.752-402.752h-805.504l402.752 402.752zM573.248 448l386.752 386.752v-773.504l-386.752 386.752z" />
<glyph unicode="&#xe934;" d="M573.248 448l386.752-386.752v773.504z" />
<glyph unicode="&#xe935;" d="M930.752 896h-805.504l402.752-402.752z" />
<glyph unicode="&#xe936;" d="M64 866.752v-837.504l418.752 418.752z" />
<glyph unicode="&#xe937;" d="M125.248 0h805.504l-402.752 402.752z" />
<glyph unicode="&#xe938;" glyph-name="02020020" d="M960 960h-896c-35.2 0-64-28.8-64-64v-896c0-35.2 28.8-64 64-64h896c35.2 0 64 28.8 64 64v896c0 35.2-28.8 64-64 64zM189.056 757.696l293.696-293.696-308.928-308.928c-68.224 78.624-109.824 180.896-109.824 292.928 0 120.16 47.808 229.152 125.056 309.696zM528 418.752l293.696-293.696c-80.544-77.248-189.536-125.056-309.696-125.056-112.032 0-214.304 41.6-292.928 109.824l308.928 308.928zM864.64 172.64l-291.392 291.36 276.928 276.928c68.224-78.624 109.824-180.896 109.824-292.928 0-103.84-35.84-199.328-95.36-275.36zM528 509.248l-291.36 291.392c76.032 59.52 171.52 95.36 275.36 95.36 112.032 0 214.304-41.6 292.928-109.824l-276.928-276.928zM64 896h200.32c-84.128-46.624-153.696-116.192-200.32-200.32v200.32zM64 0v200.32c46.624-84.128 116.192-153.696 200.32-200.32h-200.32zM960 0h-200.32c84.128 46.624 153.696 116.192 200.32 200.32v-200.32zM759.68 896h200.32v-200.32c-46.624 84.128-116.192 153.696-200.32 200.32z" />
<glyph unicode="&#xe939;" d="M528 509.28l276.928 276.896c-78.624 68.224-180.896 109.824-292.928 109.824-103.84 0-199.328-35.84-275.36-95.36l291.36-291.36z" />
<glyph unicode="&#xe93a;" d="M264.32 896h-200.32v-200.32c46.624 84.128 116.192 153.696 200.32 200.32z" />
<glyph unicode="&#xe93b;" d="M64 200.32v-200.32h200.32c-84.128 46.624-153.696 116.192-200.32 200.32z" />
<glyph unicode="&#xe93c;" d="M482.752 464l-293.696 293.696c-77.248-80.544-125.056-189.536-125.056-309.696 0-112.032 41.6-214.304 109.824-292.928l308.928 308.928z" />
<glyph unicode="&#xe93d;" d="M573.248 464l291.36-291.36c59.552 76.032 95.392 171.52 95.392 275.36 0 112.032-41.6 214.304-109.824 292.928l-276.928-276.928z" />
<glyph unicode="&#xe93e;" d="M759.68 896c84.128-46.624 153.696-116.192 200.32-200.32v200.32h-200.32z" />
<glyph unicode="&#xe93f;" d="M528 418.752l-308.928-308.928c78.624-68.224 180.896-109.824 292.928-109.824 120.16 0 229.152 47.808 309.696 125.056l-293.696 293.696z" />
<glyph unicode="&#xe940;" d="M759.68 0h200.32v200.32c-46.624-84.128-116.192-153.696-200.32-200.32z" />
<glyph unicode="&#xe941;" d="M960 960h-896c-35.2 0-64-28.8-64-64v-896c0-35.2 28.8-64 64-64h896c35.2 0 64 28.8 64 64v896c0 35.2-28.8 64-64 64zM64 200.32c46.624-84.128 116.192-153.696 200.32-200.32h-200.32v200.32zM64 695.68v200.32h200.32c-84.128-46.624-153.696-116.192-200.32-200.32zM512 896c112.032 0 214.304-41.6 292.928-109.824l-276.928-276.928-291.36 291.392c76.032 59.52 171.52 95.36 275.36 95.36zM189.056 757.696l293.696-293.696-308.928-308.928c-68.224 78.624-109.824 180.896-109.824 292.928 0 120.16 47.808 229.152 125.056 309.696zM219.072 109.824l308.928 308.928 293.696-293.696c-80.544-77.248-189.536-125.056-309.696-125.056-112.032 0-214.304 41.6-292.928 109.824zM960 200.32v-200.32h-200.32c84.128 46.624 153.696 116.192 200.32 200.32zM864.64 172.64l-291.392 291.36 276.928 276.928c68.224-78.624 109.824-180.896 109.824-292.928 0-103.84-35.84-199.328-95.36-275.36zM759.68 896h200.32v-200.32c-46.624 84.128-116.192 153.696-200.32 200.32z" />
<glyph unicode="&#xe942;" glyph-name="02020030" d="M512 960c-282.784 0-512-229.216-512-512s229.216-512 512-512 512 229.216 512 512-229.216 512-512 512zM512 0c-247.040 0-448 200.96-448 448s200.96 448 448 448 448-200.96 448-448-200.96-448-448-448z" />
<glyph unicode="&#xe943;" d="M512 896c-247.040 0-448-200.96-448-448s200.96-448 448-448 448 200.96 448 448-200.96 448-448 448z" />
<glyph unicode="&#xe944;" d="M512 960c-282.784 0-512-229.216-512-512s229.216-512 512-512 512 229.216 512 512-229.216 512-512 512zM512 0c-247.040 0-448 200.96-448 448s200.96 448 448 448 448-200.96 448-448-200.96-448-448-448z" />
<glyph unicode="&#xe945;" glyph-name="02020040" d="M512 960c-282.784 0-512-229.216-512-512s229.216-512 512-512 512 229.216 512 512-229.216 512-512 512zM938.112 585.696l-563.84-563.84c-61.216 19.84-116.448 52.672-163.008 95.008l631.872 631.84c42.304-46.56 75.168-101.792 94.976-163.008zM165.728 164.128c-40.928 49.824-70.848 108.768-87.296 173.056l544.384 544.384c64.288-16.448 123.232-46.368 173.056-87.296l-630.144-630.144zM512 896c11.168 0 22.112-0.864 33.088-1.664l-479.424-479.424c-0.8 10.976-1.664 21.92-1.664 33.088 0 247.040 200.96 448 448 448zM512 0c-20.384 0-40.288 1.856-59.936 4.48l503.456 503.456c2.624-19.648 4.48-39.552 4.48-59.936 0-247.040-200.96-448-448-448z" />
<glyph unicode="&#xe946;" d="M512 0c247.040 0 448 200.96 448 448 0 20.384-1.856 40.288-4.48 59.936l-503.456-503.456c19.648-2.624 39.552-4.48 59.936-4.48z" />
<glyph unicode="&#xe947;" d="M512 896c-247.040 0-448-200.96-448-448 0-11.168 0.864-22.112 1.664-33.088l479.424 479.424c-10.976 0.8-21.92 1.664-33.088 1.664z" />
<glyph unicode="&#xe948;" d="M938.112 585.696c-19.84 61.216-52.672 116.448-95.008 163.008l-631.808-631.84c46.56-42.336 101.792-75.168 163.008-95.008l563.808 563.84z" />
<glyph unicode="&#xe949;" d="M622.816 881.568l-544.384-544.384c16.448-64.288 46.368-123.232 87.296-173.056l630.144 630.144c-49.824 40.928-108.768 70.848-173.056 87.296z" />
<glyph unicode="&#xe94a;" d="M512 960c-282.784 0-512-229.216-512-512s229.216-512 512-512 512 229.216 512 512-229.216 512-512 512zM960 448c0-247.040-200.96-448-448-448-20.384 0-40.288 1.856-59.936 4.48l503.456 503.456c2.624-19.648 4.48-39.552 4.48-59.936zM64 448c0 247.040 200.96 448 448 448 11.168 0 22.112-0.864 33.088-1.664l-479.424-479.424c-0.8 10.976-1.664 21.92-1.664 33.088zM78.432 337.184l544.384 544.384c64.288-16.448 123.232-46.368 173.056-87.296l-630.144-630.144c-40.928 49.824-70.848 108.768-87.296 173.056zM843.136 748.704c42.336-46.56 75.168-101.792 95.008-163.008l-563.84-563.84c-61.216 19.84-116.448 52.672-163.008 95.008l631.84 631.84z" />
<glyph unicode="&#xe94b;" glyph-name="02020050" d="M512 960c-282.784 0-512-229.216-512-512s229.216-512 512-512 512 229.216 512 512-229.216 512-512 512zM573.248 464l276.928 276.928c68.224-78.624 109.824-180.896 109.824-292.928 0-103.84-35.84-199.328-95.36-275.36l-291.392 291.36zM804.928 786.176l-276.928-276.928-291.36 291.392c76.032 59.52 171.52 95.36 275.36 95.36 112.032 0 214.304-41.6 292.928-109.824zM64 448c0 120.16 47.808 229.152 125.056 309.696l293.696-293.696-308.928-308.928c-68.224 78.624-109.824 180.896-109.824 292.928zM219.072 109.824l308.928 308.928 293.696-293.696c-80.544-77.248-189.536-125.056-309.696-125.056-112.032 0-214.304 41.6-292.928 109.824z" />
<glyph unicode="&#xe94c;" d="M236.64 800.64l291.36-291.36 276.928 276.928c-78.624 68.192-180.896 109.792-292.928 109.792-103.84 0-199.328-35.84-275.36-95.36z" />
<glyph unicode="&#xe94d;" d="M850.176 740.928l-276.928-276.928 291.36-291.36c59.552 76.032 95.392 171.52 95.392 275.36 0 112.032-41.6 214.304-109.824 292.928z" />
<glyph unicode="&#xe94e;" d="M482.752 464l-293.696 293.696c-77.248-80.544-125.056-189.536-125.056-309.696 0-112.032 41.6-214.304 109.824-292.928l308.928 308.928z" />
<glyph unicode="&#xe94f;" d="M821.696 125.056l-293.696 293.696-308.928-308.928c78.624-68.224 180.896-109.824 292.928-109.824 120.16 0 229.152 47.808 309.696 125.056z" />
<glyph unicode="&#xe950;" d="M512 960c-282.784 0-512-229.216-512-512s229.216-512 512-512 512 229.216 512 512-229.216 512-512 512zM573.248 464l276.928 276.928c68.224-78.624 109.824-180.896 109.824-292.928 0-103.84-35.84-199.328-95.36-275.36l-291.392 291.36zM528 509.248l-291.36 291.392c76.032 59.52 171.52 95.36 275.36 95.36 112.032 0 214.304-41.6 292.928-109.824l-276.928-276.928zM189.056 757.696l293.696-293.696-308.928-308.928c-68.224 78.624-109.824 180.896-109.824 292.928 0 120.16 47.808 229.152 125.056 309.696zM528 418.752l293.696-293.696c-80.544-77.248-189.536-125.056-309.696-125.056-112.032 0-214.304 41.6-292.928 109.824l308.928 308.928z" />
<glyph unicode="&#xe951;" glyph-name="02020060" d="M1020.256 463.040l-242.24 448.064c-0.64 1.184-1.568 2.144-2.336 3.264-0.576 0.8-1.056 1.568-1.696 2.304-0.48 0.544-0.832 1.152-1.344 1.664-0.32 0.32-0.736 0.544-1.088 0.864-1.888 1.76-3.904 3.36-6.144 4.608-0.16 0.096-0.224 0.256-0.384 0.32-0.416 0.224-0.896 0.192-1.312 0.416-0.032 0-0.064 0.032-0.096 0.032-0.896 0.448-1.792 0.832-2.752 1.184-2.016 0.768-4.064 1.28-6.208 1.6-1.056 0.16-2.048 0.352-3.104 0.416-0.608 0.032-1.152 0.224-1.76 0.224h-480.704c-0.608 0-1.152-0.192-1.76-0.256-1.024-0.064-2.016-0.256-3.040-0.416-3.2-0.48-6.208-1.408-9.056-2.816-0.416-0.224-0.896-0.16-1.312-0.416-0.16-0.096-0.224-0.256-0.384-0.32-3.264-1.824-6.080-4.288-8.544-7.136-0.64-0.736-1.12-1.504-1.664-2.304-0.768-1.12-1.696-2.080-2.336-3.264l-237.152-447.808c-5.12-9.536-5.12-21.024 0-30.56l237.088-447.808c0.64-1.184 1.568-2.144 2.336-3.264 0.576-0.8 1.056-1.568 1.696-2.304 2.464-2.912 5.28-5.312 8.544-7.136 0.16-0.096 0.224-0.256 0.384-0.32 1.312-0.704 2.688-1.056 4.064-1.568 0.992-0.384 1.952-0.896 2.976-1.152 2.688-0.736 5.44-1.152 8.128-1.152v0 0h480.768c2.72 0 5.44 0.416 8.16 1.12 0.992 0.256 1.888 0.768 2.848 1.12 0.8 0.288 1.6 0.544 2.368 0.928 0.576 0.288 1.216 0.384 1.792 0.704 0.16 0.096 0.224 0.256 0.384 0.32 2.24 1.248 4.256 2.848 6.144 4.608 0.352 0.32 0.768 0.512 1.088 0.864 0.512 0.512 0.864 1.12 1.344 1.664 0.64 0.736 1.12 1.504 1.696 2.304 0.768 1.088 1.696 2.016 2.336 3.264l242.24 447.584c5.152 9.504 5.152 21.024 0.032 30.56zM473.12 447.712l-162.464-302.848v605.696l162.464-302.848zM322.72 863.616h373.536l-186.752-348.128-186.784 348.128zM509.472 379.936l186.752-348.128h-373.504l186.752 348.128zM545.824 447.712l172.032 320.672v-641.376l-172.032 320.704zM246.656 786.208v-676.96l-181.6 338.496 181.6 338.464zM781.888 127.040v641.312l172.032-320.608-172.032-320.704z" />
<glyph unicode="&#xe952;" glyph-name="02020070" d="M928 960h-832c-52.928 0-96-43.072-96-96v-832c0-52.928 43.072-96 96-96h832c52.928 0 96 43.072 96 96v832c0 52.928-43.072 96-96 96zM960 32c0-17.664-14.336-32-32-32h-832c-17.632 0-32 14.336-32 32v832c0 17.632 14.368 32 32 32h832c17.664 0 32-14.368 32-32v-832z" />
<glyph unicode="&#xe953;" d="M928 896h-832c-17.632 0-32-14.368-32-32v-832c0-17.664 14.368-32 32-32h832c17.664 0 32 14.336 32 32v832c0 17.632-14.336 32-32 32z" />
<glyph unicode="&#xe954;" d="M928 960h-832c-52.928 0-96-43.072-96-96v-832c0-52.928 43.072-96 96-96h832c52.928 0 96 43.072 96 96v832c0 52.928-43.072 96-96 96zM960 32c0-17.664-14.336-32-32-32h-832c-17.632 0-32 14.336-32 32v832c0 17.632 14.368 32 32 32h832c17.664 0 32-14.368 32-32v-832z" />
<glyph unicode="&#xe955;" d="M703.968 282.016c0.992 47.392-15.488 91.136-43.36 125.248-41.984-30.016-93.184-47.84-148.48-47.84-1.824 0-3.616 0.032-5.44 0.064-53.44 1.12-102.688 18.592-143.168 47.456-26.272-32.16-42.528-72.768-43.456-116.96-1.056-51.264 17.92-99.872 53.408-136.896 35.488-36.992 83.296-57.984 134.56-59.040l4.096-0.032c103.616 0 189.696 84.32 191.84 188z" />
<glyph unicode="&#xe956;" d="M413.952 450.496c28.192-16.832 60.352-26.304 94.080-27.008l4.096-0.032c35.648 0 69.088 10.144 97.888 27.456-27.616 16.48-59.648 26.368-94.016 27.072l-4.096 0.032c-35.68 0-69.152-10.176-97.952-27.52z" />
<glyph unicode="&#xe957;" d="M767.968 610.112c2.752 132.32-95.424 243.296-223.968 259.328v58.56c0 17.664-14.336 32-32 32s-32-14.336-32-32v-58.752c-124.032-15.52-221.248-119.808-223.936-248.48-1.344-64.608 21.568-124 60.128-169.856-36.416-43.2-58.88-98.688-60.128-159.584-2.752-132.32 95.392-243.264 223.936-259.328v-64c0-17.696 14.336-32 32-32s32 14.304 32 32v64.192c124.032 15.488 221.28 119.776 223.968 248.48 1.344 64.608-21.568 124-60.128 169.856 36.416 43.2 58.848 98.688 60.128 159.584zM511.904 807.424l4.096-0.032c105.856-2.208 190.176-90.112 187.968-195.968-0.928-44.16-17.184-84.768-43.456-116.928-40.448 28.864-89.696 46.336-143.168 47.424-1.824 0.032-3.648 0.064-5.44 0.064-55.328 0-106.528-17.856-148.512-47.872-28.896 35.328-44.256 79.2-43.328 125.28 2.144 103.712 88.192 188.032 191.84 188.032zM508.032 94.048c-51.264 1.056-99.072 22.048-134.56 59.040-35.488 37.024-54.464 85.632-53.408 136.896 0.928 44.192 17.184 84.8 43.456 116.96 40.48-28.864 89.728-46.336 143.168-47.456 1.824-0.032 3.616-0.064 5.44-0.064 55.296 0 106.496 17.824 148.48 47.84 27.872-34.112 44.352-77.856 43.36-125.248-2.144-103.68-88.224-188-191.84-188l-4.096 0.032zM610.016 450.912c-28.8-17.312-62.24-27.456-97.888-27.456l-4.096 0.032c-33.728 0.704-65.888 10.176-94.080 27.008 28.8 17.344 62.272 27.52 97.952 27.52l4.096-0.032c34.368-0.704 66.4-10.592 94.016-27.072z" />
<glyph unicode="&#xe958;" d="M553.12 711.040c5.248 7.008 5.696 13.248 1.312 18.816-4.384 5.536-13.28 12.096-26.688 19.68l-1.728-2.624c8.16-11.072 13.408-21.568 15.744-31.488 2.304-9.952 6.112-11.392 11.36-4.384z" />
<glyph unicode="&#xe959;" d="M411.328 593.792c15.744 19.232 27.68 37.312 35.872 54.24 0-41.44-0.288-74.688-0.864-99.744l14.016 5.248c-0.576 11.68-0.864 48.384-0.864 110.24 8.16-8.736 14.144-17.376 17.952-25.824 3.776-8.48 7.264-8.896 10.496-1.312 3.2 7.584 2.304 13.568-2.624 17.952-4.992 4.384-13.568 8.896-25.824 13.568v23.68h35.008l-14.88 14.88-9.632-9.632h-10.496v38.496l7.872 6.112-20.992 10.496c0.544-17.504 0.864-35.872 0.864-55.136h-36.736l7.872-7.872c6.4 1.76 13.408 2.624 20.992 2.624h7.84c-6.432-33.856-19.232-65.952-38.496-96.256l2.624-1.76z" />
<glyph unicode="&#xe95a;" d="M522.592 696.16h17.504v-56.896h-44.64l7.872-7.872c6.4 1.76 13.408 2.624 20.992 2.624h15.744v-68.256h-63.008l7.872-7.872c6.4 1.76 13.408 2.624 20.992 2.624h106.752l-17.504 17.504-12.256-12.256h-30.624v68.256h52.512l-16.64 16.64-11.36-11.36h-24.512v56.864h59.488l-17.504 17.504-12.256-12.256h-88.384l7.968-7.872c6.4 1.76 13.408 2.624 20.992 2.624z" />
<glyph unicode="&#xe95b;" glyph-name="02030020" d="M527.744 749.536c13.408-7.584 22.304-14.144 26.688-19.68 4.384-5.568 3.936-11.808-1.312-18.816s-9.056-5.568-11.36 4.384c-2.336 9.92-7.584 20.416-15.744 31.488l1.728 2.624zM446.336 548.288c0.576 25.056 0.864 58.304 0.864 99.744-8.192-16.928-20.128-35.008-35.872-54.24l-2.624 1.76c19.264 30.304 32.064 62.4 38.496 96.256h-7.84c-7.584 0-14.592-0.864-20.992-2.624l-7.872 7.872h36.736c0 19.264-0.32 37.632-0.864 55.136l20.992-10.496-7.872-6.112v-38.496h10.496l9.632 9.632 14.88-14.88h-35.008v-23.68c12.256-4.672 20.832-9.184 25.824-13.568 4.928-4.384 5.824-10.368 2.624-17.952-3.232-7.584-6.72-7.168-10.496 1.312-3.808 8.448-9.792 17.088-17.952 25.824 0-61.856 0.288-98.56 0.864-110.24l-14.016-5.248zM505.92 560.512c-7.584 0-14.592-0.864-20.992-2.624l-7.872 7.872h63.008v68.256h-15.744c-7.584 0-14.592-0.864-20.992-2.624l-7.872 7.872h44.64v56.896h-17.504c-7.584 0-14.592-0.864-20.992-2.624l-7.968 7.872h88.384l12.256 12.256 17.504-17.504h-59.488v-56.864h24.512l11.36 11.36 16.64-16.64h-52.512v-68.256h30.624l12.256 12.256 17.504-17.504c0 0-106.752 0-106.752 0zM767.968 610.112c2.752 132.32-95.424 243.296-223.968 259.328v58.56c0 17.664-14.336 32-32 32s-32-14.336-32-32v-58.752c-124.032-15.52-221.248-119.808-223.936-248.48-1.344-64.608 21.568-124 60.128-169.856-36.416-43.2-58.88-98.688-60.128-159.584-2.752-132.32 95.392-243.264 223.936-259.328v-64c0-17.696 14.336-32 32-32s32 14.304 32 32v64.192c124.032 15.488 221.28 119.776 223.968 248.48 1.344 64.608-21.568 124-60.128 169.856 36.416 43.2 58.848 98.688 60.128 159.584zM512.128 94.016l-4.096 0.032c-51.264 1.056-99.072 22.048-134.56 59.040-35.488 37.024-54.464 85.632-53.408 136.896 0.928 44.192 17.184 84.8 43.456 116.96 40.48-28.864 89.728-46.336 143.168-47.456 1.824-0.032 3.616-0.064 5.44-0.064 55.296 0 106.496 17.824 148.48 47.84 27.872-34.112 44.352-77.856 43.36-125.248-2.144-103.68-88.224-188-191.84-188zM413.952 450.496c28.8 17.344 62.272 27.52 97.952 27.52l4.096-0.032c34.368-0.704 66.4-10.592 94.016-27.072-28.8-17.312-62.24-27.456-97.888-27.456l-4.096 0.032c-33.728 0.704-65.888 10.176-94.080 27.008zM660.512 494.496c-40.448 28.864-89.696 46.336-143.168 47.424-1.824 0.032-3.648 0.064-5.44 0.064-55.328 0-106.528-17.856-148.512-47.872-28.896 35.328-44.256 79.2-43.328 125.28 2.144 103.712 88.192 188.032 191.84 188.032l4.096-0.032c105.856-2.208 190.176-90.112 187.968-195.968-0.928-44.16-17.184-84.768-43.456-116.928zM553.12 711.040c5.248 7.008 5.696 13.248 1.312 18.816-4.384 5.536-13.28 12.096-26.688 19.68l-1.728-2.624c8.16-11.072 13.408-21.568 15.744-31.488 2.304-9.952 6.112-11.392 11.36-4.384zM477.44 637.952c3.776-8.48 7.264-8.896 10.496-1.312 3.2 7.584 2.304 13.568-2.624 17.952-4.992 4.384-13.568 8.896-25.824 13.568v23.68h35.008l-14.88 14.88-9.632-9.632h-10.496v38.496l7.872 6.112-20.992 10.496c0.544-17.504 0.864-35.872 0.864-55.136h-36.736l7.872-7.872c6.4 1.76 13.408 2.624 20.992 2.624h7.84c-6.432-33.856-19.232-65.952-38.496-96.256l2.624-1.76c15.744 19.232 27.68 37.312 35.872 54.24 0-41.44-0.288-74.688-0.864-99.744l14.016 5.248c-0.576 11.68-0.864 48.384-0.864 110.24 8.16-8.736 14.144-17.376 17.952-25.824zM582.912 565.76h-30.624v68.256h52.512l-16.64 16.64-11.36-11.36h-24.512v56.864h59.488l-17.504 17.504-12.256-12.256h-88.384l7.968-7.872c6.4 1.76 13.408 2.624 20.992 2.624h17.504v-56.896h-44.64l7.872-7.872c6.4 1.76 13.408 2.624 20.992 2.624h15.744v-68.256h-63.008l7.872-7.872c6.4 1.76 13.408 2.624 20.992 2.624h106.752l-17.504 17.504-12.256-12.256z" />
<glyph unicode="&#xe95c;" d="M608 704h-192c-17.632 0-32-14.368-32-32v-448c0-17.664 14.368-32 32-32h192c17.664 0 32 14.336 32 32v448c0 17.632-14.336 32-32 32z" />
<glyph unicode="&#xe95d;" d="M608 768h-64v160c0 17.664-14.336 32-32 32s-32-14.336-32-32v-160h-64c-52.928 0-96-43.072-96-96v-448c0-52.928 43.072-96 96-96h64v-160c0-17.696 14.336-32 32-32s32 14.304 32 32v160h64c52.928 0 96 43.072 96 96v448c0 52.928-43.072 96-96 96zM640 224c0-17.664-14.336-32-32-32h-192c-17.632 0-32 14.336-32 32v448c0 17.632 14.368 32 32 32h192c17.664 0 32-14.368 32-32v-448z" />
<glyph unicode="&#xe95e;" glyph-name="02040011" d="M608 768h-64v160c0 17.664-14.336 32-32 32s-32-14.336-32-32v-160h-64c-52.928 0-96-43.072-96-96v-448c0-52.928 43.072-96 96-96h64v-160c0-17.696 14.336-32 32-32s32 14.304 32 32v160h64c52.928 0 96 43.072 96 96v448c0 52.928-43.072 96-96 96zM640 224c0-17.664-14.336-32-32-32h-192c-17.632 0-32 14.336-32 32v448c0 17.632 14.368 32 32 32h192c17.664 0 32-14.368 32-32v-448z" />
<glyph unicode="&#xe95f;" glyph-name="02050010" d="M719.264 704h-174.496v223.744c0 17.824-14.528 32.256-32.736 32.256s-32.736-14.432-32.736-32.256v-223.744h-174.56c-0.256 0-0.512-0.16-0.768-0.16-2.304-0.064-4.512-0.8-6.752-1.344-2.048-0.48-4.128-0.704-5.984-1.536-0.32-0.128-0.608-0.096-0.896-0.224-1.504-0.736-2.496-1.984-3.84-2.88-1.952-1.312-3.936-2.496-5.568-4.16-1.44-1.536-2.368-3.328-3.488-5.12-1.12-1.728-2.336-3.296-3.072-5.216-0.864-2.208-1.088-4.512-1.408-6.848-0.224-1.536-0.96-2.912-0.96-4.512 0-0.288 0.16-0.544 0.16-0.832 0.064-2.144 0.8-4.192 1.312-6.336 0.48-2.048 0.768-4.16 1.632-6.048 0.128-0.288 0.064-0.608 0.224-0.864l203.936-399.2v-290.72c0-17.696 14.656-32 32.736-32s32.736 14.304 32.736 32v294.016c0 14.016-4.672 21.024-4.864 21.44l-88.352 172.928c18.112-9.248 38.4-14.976 60.288-14.976 72.32 0 130.944 57.312 130.944 128 0 26.112-8.096 50.368-21.824 70.624h98.336c18.112 0 32.736 14.336 32.736 32s-14.624 31.968-32.736 31.968zM511.776 505.376c-36.128 0-65.472 28.704-65.472 64s29.376 64 65.472 64 65.472-28.704 65.472-64c0.032-35.296-29.344-64-65.472-64zM383.008 590.496l-25.28 49.504h44.96c-9.952-14.656-16.576-31.488-19.68-49.504z" />
<glyph unicode="&#xe960;" glyph-name="02050011" d="M716.608 704.896h-172.448v222.848c0 17.824-14.432 32.256-32.256 32.256s-32.256-14.432-32.256-32.256v-222.848h-168.192c-17.664 0-32-14.336-32-32s14.336-32 32-32h93.792c-13.44-20.256-21.344-44.48-21.344-70.592 0-70.688 57.312-128 128-128s128 57.312 128 128c0 26.112-7.904 50.336-21.344 70.592h98.080c17.664 0 31.968 14.336 31.968 32s-14.304 32-32 32zM511.904 506.304c-35.296 0-64 28.704-64 64s28.704 64 64 64c35.296 0 64-28.704 64-64s-28.704-64-64-64zM542.272 292.864c-0.48 1.44-0.928 2.784-1.6 4.128-0.96 1.856-2.144 3.52-3.488 5.184-1.6 2.080-3.264 3.904-5.312 5.568-0.384 0.288-0.544 0.736-0.96 0.992l-347.872 242.912c-14.528 10.112-34.464 6.592-44.576-7.904-10.112-14.528-6.592-34.464 7.904-44.576l332.384-232.096v-298.176c0-18.080 14.688-32.768 32.8-32.768s32.8 14.688 32.8 32.768v313.76c0 0.512-0.256 0.928-0.288 1.44-0.16 3.040-0.768 5.888-1.792 8.768z" />
<glyph unicode="&#xe961;" glyph-name="02060010" d="M714.816 701.696h-171.712v226.112c-0.032 17.792-14.080 32.192-31.776 32.192s-31.744-14.4-31.744-32.192v-226.144h-144.768l-4.128 8.736c-8.192 16.832-28.448 23.936-45.184 15.68-16.736-8.224-23.68-28.512-15.456-45.312l208.48-427.168c0.288-0.576 0.736-0.928 1.024-1.472v-284.224c0-17.664 14.24-31.936 31.744-31.936s31.744 14.272 31.744 31.936v298.176c0 8.544-3.2 15.648-3.968 17.216l-173.12 354.528h348.864c17.568 0 31.744 14.304 31.744 31.936 0.032 17.632-14.208 31.936-31.744 31.936z" />
<glyph unicode="&#xe962;" glyph-name="02060011" d="M805.056 704.512h-195.328v224.032c0 17.696-14.56 32.032-32.576 32.032s-32.576-14.336-32.576-32.032v-224.032h-195.52c-17.984 0-32.576-14.336-32.576-32.032s14.592-32.032 32.576-32.032h456c17.984 0 32.576 14.368 32.576 32.032 0 17.696-14.56 32.032-32.576 32.032zM607.456 291.968c-0.576 1.856-1.152 3.616-2.048 5.312-0.896 1.664-1.984 3.136-3.168 4.64-1.536 1.984-3.168 3.744-5.12 5.312-0.576 0.448-0.864 1.12-1.472 1.536l-347.68 240.768c-14.688 10.176-35.008 6.72-45.376-7.744-10.336-14.464-6.816-34.432 7.904-44.64l333.696-231.040v-297.472c0-17.696 14.56-32.032 32.576-32.032s32.576 14.304 32.576 32.032v314.144c0 0.736-0.384 1.376-0.416 2.112-0.192 2.432-0.736 4.736-1.472 7.072z" />
<glyph unicode="&#xe963;" glyph-name="02070010" d="M864 448.832c0 184-141.216 334.816-321.152 350.464 0.352 1.792 1.152 3.456 1.152 5.376v125.44c0 16.512-14.336 29.888-32 29.888s-32-13.376-32-29.888v-125.472c0-1.92 0.8-3.584 1.152-5.376-179.936-15.648-321.152-166.432-321.152-350.432 0-183.744 140.864-334.432 320.48-350.4-0.064-0.864-0.48-1.568-0.48-2.432v-128c0-17.696 14.304-32 32-32s32 14.304 32 32v128c0 0.864-0.416 1.568-0.48 2.432 179.616 15.968 320.48 166.624 320.48 350.4zM382.4 192h259.712c-39.872-20.256-84.128-31.168-130.112-31.168-46.656 0-90.592 11.392-129.6 31.168zM640 256h-256v384h256v-384zM378.944 704c39.84 20.864 85.056 32.832 133.056 32.832s93.216-11.968 133.056-32.832h-266.112zM224 448.832c0 85.024 37.248 161.312 96 214.080v-428.096c-58.752 52.736-96 128.992-96 214.016zM704 234.624v428.256c58.752-52.768 96-129.056 96-214.080 0-76.928-29.952-149.248-84.352-203.648-3.744-3.712-7.744-7.040-11.648-10.528z" />
<glyph unicode="&#xe964;" glyph-name="02070011" d="M864 448.832c0 184.672-141.216 335.872-322.112 350.56 0.32 1.76 2.112 3.392 2.112 5.248v124.352c0 16.512-15.488 29.888-32 29.888s-32-13.376-32-29.888v-124.352c0-1.856 1.792-3.488 2.112-5.248-180.864-14.72-322.656-165.888-322.656-350.56 0-183.744 141.152-334.432 320.768-350.4-0.064-0.864-0.224-1.568-0.224-2.432v-128c0-17.696 14.336-32 32-32s32 14.304 32 32v128c0 0.864-0.416 1.568-0.48 2.432 179.616 15.968 320.48 166.624 320.48 350.4zM382.4 192h259.712c-39.872-20.256-84.128-31.168-130.112-31.168-46.656 0-90.592 11.392-129.6 31.168zM384 575.872l88.736-129.888-88.736-129.856v259.744zM511.488 389.28l91.104-133.28h-182.144l91.040 133.28zM550.24 446.016l89.76 131.328v-262.688l-89.76 131.36zM511.488 502.72l-93.792 137.28h187.648l-93.856-137.28zM378.944 704c39.84 20.864 85.056 32.832 133.056 32.832s93.216-11.968 133.056-32.832h-266.112zM224 448.832c0 85.024 37.248 161.312 96 214.080v-428.096c-58.752 52.736-96 128.992-96 214.016zM704 234.624v428.256c58.752-52.768 96-129.056 96-214.080 0-76.928-29.952-149.248-84.352-203.648-3.744-3.712-7.744-7.040-11.648-10.528z" />
<glyph unicode="&#xe965;" glyph-name="02080010" d="M720 864h-192v64c0 17.696-14.336 32-32 32s-32-14.304-32-32v-64h-192c-35.2 0-64-28.8-64-64v-704c0-35.2 28.8-64 64-64h192v-64c0-17.696 14.336-32 32-32s32 14.304 32 32v64h192c35.2 0 64 28.8 64 64v704c0 35.2-28.8 64-64 64zM272 96v417.696l192-237.024v-180.672h-192zM720 96h-192v192c0 1.472-1.376 8.48-2.144 10.592-0.768 2.144-4.096 8.448-4.992 9.6l-227.040 280.288c-5.632 6.944-13.568 10.848-21.824 11.648v199.872h192v-96h-63.488c-17.664 0-32-14.304-32-32s14.336-32 32-32h191.008c17.664 0 32 14.304 32 32s-14.336 32-32 32h-63.52v96h192v-704z" />
<glyph unicode="&#xe966;" glyph-name="02080011" d="M736 864h-192v64c0 17.664-14.336 32-32 32s-32-14.336-32-32v-64h-192c-35.2 0-64-28.8-64-64v-704c0-35.2 28.8-64 64-64h192v-64c0-17.696 14.336-32 32-32s32 14.304 32 32v64h192c35.2 0 64 28.8 64 64v704c0 35.2-28.8 64-64 64zM288 96v704h192v-96h-52.608c-6.592 0-18.112 0.832-25.888-0.992-16-3.008-23.904-17.824-19.744-34.976l98.24-403.296v-168.736h-192zM736 96h-192v169.856c0 0.992-0.352 1.856-0.448 2.848-0.032 2.432 0.384 4.992-0.224 7.424l-88.64 363.872h159.552c17.696 0 32 14.336 32 32s-14.304 32-32 32h-70.24v96h192v-704z" />
<glyph unicode="&#xe967;" glyph-name="02090010" d="M721.632 688h-90.272l-0.224 258.144c0 8.864-6.912 13.856-15.712 13.856s-16.16-4.992-16.16-13.856l0.192-258.144h-108.64c-8.8 0-15.936-7.168-15.936-16 0-1.344 0.448-2.528 0.768-3.776l-11.168-5.216-16.544 35.616c-3.744 8-13.216 11.456-21.216 7.744-7.968-3.744-11.424-13.248-7.712-21.28l16.544-35.616-36.608-17.12c-7.968-3.744-11.424-13.248-7.712-21.28l55.648-119.68-24.096-11.264c-2.048 3.456-5.152 6.176-8.992 7.328-4.416 1.312-9.152 0.672-13.024-1.792l-97.632-61.504-4.32-2.016c-7.968-3.712-11.424-13.248-7.712-21.248 2.72-5.856 8.448-9.248 14.496-9.248 2.272 0 4.576 0.48 6.72 1.504l4.32 2.016 109.728 35.488c4.384 1.408 7.904 4.64 9.728 8.832 1.6 3.712 1.504 7.84 0.16 11.616l24.096 11.264 52.832-113.632c1.792-3.84 5.056-6.848 8.992-8.288 1.76-0.672 3.616-0.96 5.44-0.96 2.304 0 4.64 0.512 6.72 1.504l36.608 17.152 14.56-31.296c-28.544-10.176-49.152-37.28-49.152-69.376 0-36.16 28.384-65.44 62.592-71.776v-233.696c0-8.832 7.136-16 15.936-16s15.936 7.168 15.936 16v235.008c31.648 8.288 52.832 36.192 52.832 70.496 0 37.696-28.416 68.576-64.832 72.992-0.096 0.256-0.064 0.544-0.192 0.8l-18.784 40.384 39.040 18.272c8 3.744 11.456 13.248 7.712 21.248l-113.696 244.8h188.736c8.8 0 15.936 7.168 15.936 16s-7.136 16-15.936 16zM651.776 257.504c0-23.104-18.752-41.92-41.792-41.92s-41.728 18.816-41.728 41.92 18.688 41.92 41.728 41.92 41.792-18.816 41.792-41.92zM535.328 376.768l-108.448 233.344 22.176 10.368 108.48-233.312-22.208-10.4zM586.432 400.704l-108.448 233.312 24.64 11.52 108.448-233.312-24.64-11.52z" />
<glyph unicode="&#xe968;" glyph-name="02090011" d="M718.24 672h-111.584v272c0 8.832-7.072 16-15.808 16s-15.808-7.168-15.808-16v-272h-112.16c-8.704 0-15.808-7.168-15.808-16s7.072-16 15.808-16h255.36c8.704 0 15.808 7.168 15.808 16s-7.072 16-15.808 16zM592.672 304.416c-0.064 0-0.128-0.032-0.192-0.032l-31.264 31.68 31.040 31.424c6.176 6.24 6.176 16.384 0 22.624l-206.144 208.8c-5.92 6.016-16.384 6.016-22.336 0l-31.008-31.424-28.256 28.608c-6.144 6.24-16.16 6.24-22.336 0s-6.176-16.384 0-22.624l28.224-28.608-29.12-29.44c-6.176-6.24-6.176-16.384 0-22.624l94.24-95.456-19.392-19.648c-3.104 2.656-6.944 4.288-11.104 3.968-4.512-0.256-8.704-2.528-11.488-6.144l-71.456-93.088-3.456-3.52c-6.176-6.24-6.176-16.384 0-22.624 3.104-3.104 7.168-4.672 11.2-4.672 4.064 0 8.096 1.568 11.168 4.704l3.52 3.552 91.808 72.288c3.584 2.816 5.792 7.008 6.080 11.616 0.256 4.16-1.28 8.128-3.936 11.296l19.392 19.648 89.568-90.72c2.976-2.976 7.008-4.672 11.2-4.672s8.224 1.696 11.168 4.672l29.056 29.44 18.368-18.592c-22.912-12.8-38.656-37.216-38.656-65.504 0-35.2 24.16-64.608 56.48-72.672v-204.672c0-8.832 7.072-16 15.808-16 8.704 0 15.808 7.168 15.808 16v203.712c34.176 6.656 60.128 37.12 60.128 73.632 0 41.376-33.248 75.072-74.112 75.072zM374.88 565.056l183.808-186.176-19.872-20.128-183.808 186.176 19.872 20.128zM498.592 317.984l-183.808 186.176 17.92 18.144 183.808-186.176-17.92-18.144zM592.672 186.272c-23.456 0-42.528 19.328-42.528 43.072s19.072 43.072 42.528 43.072 42.528-19.328 42.528-43.072-19.072-43.072-42.528-43.072z" />
<glyph unicode="&#xe969;" glyph-name="02100010" d="M719.968 843.264h-159.264v100.736c0 8.832-7.168 16-15.968 16s-15.968-7.168-15.968-16v-100.736h-160.96c-35.168 0-63.936-28.864-63.936-64.128v-662.816c0-35.264 28.768-64.128 63.936-64.128h160.64v-100.192c0-8.832 7.168-16 15.968-16s15.968 7.136 15.968 16v100.192h159.552c35.168 0 63.936 28.864 63.936 64.128v662.816c0 35.264-28.768 64.128-63.904 64.128zM367.808 85.248c-17.088 0-30.976 13.92-30.976 31.072v662.816c0 17.12 13.888 31.072 30.976 31.072h160.96v-45.088c-36.96-7.008-64.96-39.456-64.96-78.56 0-38.976 27.808-71.392 64.608-78.528v-43.392c0-0.704 0.32-1.312 0.416-2.016h-80.224v-438.72h80.32c-0.128-0.832-0.48-1.536-0.48-2.4v-36.256h-160.64zM750.944 116.32c0-17.12-13.888-31.072-30.976-31.072h-159.584v36.256c0 0.864-0.352 1.568-0.48 2.4h80.32v438.72h-80.288c0.096 0.704 0.416 1.312 0.416 2.016v43.68c36.064 7.712 63.136 39.776 63.136 78.24 0 38.336-26.912 70.272-62.784 78.144v45.504h159.264c17.088 0 30.976-13.92 30.976-31.072 0 0 0-662.816 0-662.816z" />
<glyph unicode="&#xe96a;" glyph-name="02100011" d="M719.968 843.36h-159.616v100.768c0 8.704-7.008 15.744-15.648 15.744s-15.68-7.072-15.68-15.744v-100.768h-161.216c-35.168 0-63.936-28.864-63.936-64.128v-663.008c0-35.264 28.768-64.128 63.936-64.128h160.64v-100.224c0-8.864 7.168-16.032 15.968-16.032s15.968 7.168 15.968 16.032v100.224h159.552c35.168 0 63.936 28.864 63.936 64.128v663.008c0 35.264-28.768 64.128-63.904 64.128zM367.808 85.152c-17.088 0-30.976 13.952-30.976 31.072v663.008c0 17.152 13.888 31.072 30.976 31.072h161.216v-29.088c-45.856-7.136-81.184-46.656-81.184-94.624 0-47.744 35.008-87.168 80.576-94.56v-27.328c0-0.736 0.32-1.344 0.416-2.048h-80.256v-438.848h80.352c-0.128-0.8-0.48-1.536-0.48-2.4v-36.256h-160.64zM480.512 155.84v374.784h127.744v-374.784h-127.744zM543.648 622.56c-35.232 0-63.872 28.736-63.872 64.064s28.64 64.064 63.872 64.064 63.872-28.736 63.872-64.064-28.64-64.064-63.872-64.064zM750.944 116.224c0-17.152-13.888-31.072-30.976-31.072h-159.584v36.256c0 0.864-0.352 1.568-0.48 2.4h80.288v438.848h-80.256c0.096 0.704 0.416 1.312 0.416 2.048v27.488c44.896 7.968 79.104 47.168 79.104 94.4s-34.208 86.432-79.104 94.4v29.312h159.616c17.088 0 30.976-13.952 30.976-31.072 0 0 0-663.008 0-663.008z" />
<glyph unicode="&#xe96b;" glyph-name="02110010" d="M768 832h-240v112c0 8.832-7.168 16-16 16s-16-7.136-16-16v-112h-240c-35.2 0-64-28.8-64-64v-640c0-35.2 28.8-64 64-64h240v-111.040c0-9.792 7.168-16.96 16-16.96s16 7.168 16 16.96v111.040h240c35.2 0 64 28.8 64 64v640c0 35.2-28.8 64-64 64zM256 94.592c-18.432 0-33.408 14.976-33.408 33.408v640c0 18.432 14.976 33.408 33.408 33.408h240v-130.528h-95.872c-2.976 0-5.6-1.024-8-2.464-3.712 6.816-11.744 10.24-19.264 7.52-8.32-3.008-12.576-12.192-9.568-20.512l15.936-43.808-35.904-13.056c-8.32-3.008-12.576-12.192-9.568-20.512l94.944-260.832c1.44-4 4.448-7.232 8.256-9.024 3.84-1.792 8.256-1.984 12.224-0.544l35.904 13.088 10.912-29.984v-196.16c0 0-240 0-240 0zM504.256 361.728l-84 230.752 23.328 8.48 84-230.72-23.328-8.512zM474.176 350.784l-20.864-7.584-84 230.752 20.864 7.584 84-230.752zM801.408 128c0-18.432-14.976-33.408-33.408-33.408h-240v192.896c0 13.024-4.384 21.728-5.408 23.712-0.032 0.064-2.656 7.296-2.688 7.392l-4.768 13.088 38.368 13.984c8.352 3.008 12.608 12.192 9.6 20.48l-94.944 260.8c-3.008 8.32-12.192 12.576-20.512 9.568l-38.336-13.952-5.952 16.32h209.184c8.832 0 16 7.168 16 16s-7.136 16-15.968 16h-84.576v130.528h240c18.432 0 33.408-14.976 33.408-33.408v-640z" />
<glyph unicode="&#xe96c;" glyph-name="02110011" d="M768.16 832.576h-239.84v111.424c0 8.832-7.168 16-16 16s-16-7.136-16-16v-111.424h-240.16c-35.2 0-64-28.8-64-64v-640c0-35.2 28.8-64 64-64h240.16v-112.576c0-8.832 7.168-16 16-16s16 7.168 16 16v112.576h239.84c35.2 0 64 28.8 64 64v640c0 35.2-28.8 64-64 64zM222.752 559.456l30.528-30.528-27.040-27.008c-1.536-1.536-2.72-3.36-3.488-5.248v62.784zM222.752 128.576v355.968c0.768-1.92 1.952-3.712 3.488-5.248l196.256-196.256c3.008-3.008 7.072-4.672 11.328-4.672s8.32 1.696 11.328 4.672l27.008 27.008 22.912-22.912c0.384-0.384 0.864-0.512 1.248-0.832 0-28.704 0-138.528 0-191.136h-240.16c-18.432 0-33.408 14.976-33.408 33.408zM449.536 332.672l-15.712-15.712-173.632 173.632 15.712 15.712 173.632-173.632zM298.528 528.928l17.536 17.536 173.632-173.6-17.536-17.568-173.632 173.632zM801.568 128.576c0-18.432-14.976-33.408-33.408-33.408h-239.84c0 60.768-0.32 198.496-0.32 198.496 0 6.592-9.856 15.68-10.272 16.096l-22.912 22.912 28.864 28.896c6.208 6.24 6.176 16.352-0.032 22.624l-196.256 196.224c-6.24 6.24-16.384 6.24-22.624 0l-28.864-28.864-32.96 32.96c-5.536 5.536-13.952 5.856-20.192 1.6v182.464c0 18.432 14.976 33.408 33.408 33.408h240.16v-129.984h-92.672c-8.832 0-16-7.168-16-16s7.168-16 16-16h209.216c8.832 0 16 7.168 16 16s-7.136 16-15.968 16h-84.576v129.984h239.84c18.432 0 33.408-14.976 33.408-33.408 0 0 0-640 0-640z" />
<glyph unicode="&#xe96d;" glyph-name="02120010" d="M320 512h384c17.696 0 32 14.336 32 32s-14.304 32-32 32h-160v352c0 17.664-14.304 32-32 32-17.664 0-32-14.336-32-32v-352h-160c-17.664 0-32-14.336-32-32s14.336-32 32-32zM704 384h-384c-17.664 0-32-14.304-32-32s14.336-32 32-32h160v-352c0-17.696 14.336-32 32-32 17.696 0 32 14.304 32 32v352h160c17.696 0 32 14.304 32 32s-14.304 32-32 32z" />
<glyph unicode="&#xe96e;" glyph-name="02130010" d="M992 416h-133.344c0 168.192-118.048 308.608-275.744 343.488l-39.712 174.88c-3.328 14.592-16.288 25.632-31.2 25.632-0.128 0-0.256 0-0.384 0-15.072 0-27.968-11.584-30.976-26.336l-34.784-170.88c-165.376-28.864-291.2-173.152-291.2-346.752h-122.656c-17.664 0-32-14.304-32-32s14.336-32 32-32h128.768c28.576-155.264 158.816-274.592 319.232-286.656v-97.376c0-17.696 14.336-32 32-32s32 14.304 32 32v98.016c155.552 16.416 280.64 134.144 308.576 285.984h139.424c17.696 0 32 14.304 32 32s-14.304 32-32 32zM800 416h-256v64h62.752c9.76 0 18.944 4 25.024 11.616 6.048 7.616 8.352 17.376 6.144 26.848l-40.256 176.32c117.312-38.4 202.336-148.832 202.336-278.784zM433.056 699.616l-37.152-182.080c-1.92-9.408 0.512-18.752 6.592-26.208s15.168-11.328 24.768-11.328h52.736v-64h-266.656c0 136.288 93.536 250.816 219.712 283.616zM220.576 352h259.424v-227.968c-127.776 11.584-232 105.376-259.424 227.968zM544 125.312v226.688h248.736c-26.624-119.136-125.856-210.976-248.736-226.688z" />
<glyph unicode="&#xe96f;" glyph-name="02140010" d="M832.096 801.28h-288.096v127.232c0 17.696-14.336 32.032-32 32.032s-32-14.336-32-32.032v-127.232h-287.904c-17.728 0-32.096-13.856-32.096-31.648v-640.704c0-17.76 14.368-32.416 32.096-32.416h287.904v-127.936c0-17.696 14.336-32.032 32-32.032s32 14.336 32 32.032v127.936h288.096c17.76 0 31.904 14.656 31.904 32.416v640.704c0 17.792-14.144 31.648-31.904 31.648zM800 160.608h-576v576.608h576v-576.608zM272.928 416.864h47.072v-192.448c0-17.696 14.336-32.032 32-32.032s32 14.336 32 32.032v192.448h256v-192.448c0-17.696 14.304-32.032 32-32.032s32 14.336 32 32.032v192.448h47.296c17.696 0 32 14.336 32 32.032s-14.304 32.032-32 32.032h-207.296v192.224c0 17.696-14.336 32.032-32 32.032s-32-14.336-32-32.032v-192.192h-207.072c-17.664 0-32-14.336-32-32.032s14.336-32.064 32-32.064z" />
<glyph unicode="&#xe970;" glyph-name="02150010" d="M1019.52 337.408c0.992 1.792 1.856 3.552 2.496 5.568 0.672 2.080 1.024 4.16 1.28 6.368 0.128 1.184 0.704 2.208 0.704 3.424 0 0.832-0.416 1.536-0.48 2.368-0.16 2.144-0.672 4.16-1.248 6.24-0.608 2.112-1.248 4.128-2.24 6.016-0.384 0.736-0.384 1.536-0.832 2.24-134.368 216.256-314.56 335.328-507.424 335.328v0c-192.864 0-373.12-119.104-507.424-335.328-0.128-0.192-0.128-0.512-0.256-0.736-1.28-2.336-2.048-4.896-2.656-7.616-0.256-1.12-0.512-2.080-0.64-3.264-0.224-1.248-0.8-2.304-0.8-3.616 0-1.472 0.608-2.784 0.8-4.224 0.192-2.144 0.608-4.096 1.184-6.208 0.416-1.344 0.832-2.592 1.44-3.872 1.248-3.168 3.040-5.92 5.344-8.544 0.352-0.416 0.736-0.768 1.152-1.152 1.568-1.6 2.688-3.552 4.704-4.8 1.376-0.864 2.88-1.28 4.32-1.888 0.16-0.064 0.32-0.128 0.48-0.224 3.936-1.6 7.968-2.688 12.064-2.688 0 0 0-0.384 0.032-0.384 0 0 0-0.384 0-0.384h288.48v-127.264c0-17.696 14.336-32 32-32s32 14.304 32 32v320.128c0 17.664-14.336 32-32 32s-32-14.336-32-32v-128.896h-228.608c117.536 160 265.12 256.192 420.352 256.192s302.816-96.192 420.352-256.192h-228.096v128.896c0 17.664-14.304 32-32 32s-32-14.336-32-32v-320.16c0-17.696 14.304-32 32-32s32 14.304 32 32v127.264h288c0.864 0 1.568 0.8 2.432 0.896 2.112 0.16 4.064 0.864 6.144 1.44 2.144 0.608 4.16 1.344 6.080 2.368 0.736 0.384 1.536 0.448 2.24 0.864 1.024 0.64 1.6 1.664 2.528 2.4 1.792 1.376 3.392 2.816 4.832 4.544 1.28 1.536 2.304 3.168 3.264 4.896z" />
<glyph unicode="&#xe971;" glyph-name="02150011" d="M32 960c-17.664 0-32-14.336-32-32v-960c0-17.696 14.336-32 32-32s32 14.304 32 32v960c0 17.664-14.336 32-32 32zM992 960c-17.696 0-32-14.336-32-32v-960c0-17.696 14.304-32 32-32s32 14.304 32 32v960c0 17.664-14.304 32-32 32z" />
<glyph unicode="&#xe972;" glyph-name="02160010" d="M800 0h-255.2v928c0 17.664-14.336 32-32 32s-32-14.336-32-32v-928h-256.8c-17.664 0-32-14.304-32-32s14.336-32 32-32h576c17.696 0 32 14.304 32 32s-14.304 32-32 32z" />
<glyph unicode="&#xe973;" glyph-name="02170010" d="M787.84 640.448h-244.736v287.104c0 17.696-14.336 32-32 32s-32-14.304-32-32v-287.104h-242.944c-41.888 0-76.16-34.272-76.16-76.16v-551.68c0-41.888 34.272-76.16 76.16-76.16h551.68c41.888 0 76.16 34.272 76.16 76.16v551.68c0 41.888-34.272 76.16-76.16 76.16zM800 12.608c0-6.592-5.568-12.16-12.16-12.16h-551.68c-6.592 0-12.16 5.568-12.16 12.16v551.68c0 6.592 5.568 12.16 12.16 12.16h551.68c6.592 0 12.16-5.568 12.16-12.16 0 0 0-551.68 0-551.68z" />
<glyph unicode="&#xe974;" glyph-name="03010010" d="M160 480h-64c-17.696 0-32-14.304-32-32s14.304-32 32-32h64c17.696 0 32 14.304 32 32s-14.304 32-32 32zM320 480h-64c-17.696 0-32-14.304-32-32s14.304-32 32-32h64c17.696 0 32 14.304 32 32s-14.304 32-32 32zM480 480h-64c-17.696 0-32-14.304-32-32s14.304-32 32-32h64c17.696 0 32 14.304 32 32s-14.304 32-32 32zM640 480h-64c-17.696 0-32-14.304-32-32s14.304-32 32-32h64c17.696 0 32 14.304 32 32s-14.304 32-32 32zM800 480h-64c-17.696 0-32-14.304-32-32s14.304-32 32-32h64c17.696 0 32 14.304 32 32s-14.304 32-32 32zM960 480h-64c-17.696 0-32-14.304-32-32s14.304-32 32-32h64c17.696 0 32 14.304 32 32s-14.304 32-32 32z" />
<glyph unicode="&#xe975;" glyph-name="03020010" d="M1006.976 476.32l-510.048 269.952c-9.888 5.248-21.824 4.928-31.424-0.832l-449.984-269.984c-9.632-5.76-15.52-16.192-15.52-27.424s5.888-21.664 15.52-27.392l449.984-270.016c5.056-3.040 10.752-4.608 16.48-4.608 5.152 0 10.272 1.248 14.976 3.744l510.048 270.016c10.432 5.536 16.992 16.384 16.992 28.256s-6.56 22.72-17.024 28.288zM482.944 214.72l-388.768 233.312 388.768 233.248 440.672-233.248-440.672-233.312z" />
<glyph unicode="&#xe976;" glyph-name="03020011" d="M1006.976 476.32l-510.048 269.952c-9.888 5.248-21.824 4.928-31.424-0.832l-449.984-269.984c-9.632-5.76-15.52-16.192-15.52-27.424s5.888-21.664 15.52-27.392l449.952-270.016c5.056-3.040 10.752-4.608 16.48-4.608 5.152 0 10.272 1.248 14.976 3.744l510.048 270.016c10.464 5.536 17.024 16.384 17.024 28.256s-6.56 22.72-17.024 28.288zM448 235.68l-353.824 212.352 353.824 212.288v-424.64zM512 230.048v435.84l411.552-217.856-411.552-217.984z" />
<glyph unicode="&#xe977;" glyph-name="03030010" d="M288 128.448l512 319.552-512 319.552v-639.104z" />
<glyph unicode="&#xe978;" glyph-name="03040010" d="M864 768h-320v160c0 17.664-14.336 32-32 32s-32-14.336-32-32v-160h-320c-35.328 0-64-28.672-64-64v-704c0-35.328 28.672-64 64-64h704c35.328 0 64 28.672 64 64v704c0 35.328-28.672 64-64 64zM864 0h-704v704h704v-704zM288 288h448c17.696 0 32 14.336 32 32s-14.304 32-32 32h-192v256c0 17.664-14.336 32-32 32s-32-14.336-32-32v-256h-192c-17.664 0-32-14.336-32-32s14.336-32 32-32zM640 256h-256c-17.664 0-32-14.336-32-32 0-17.696 14.336-32 32-32h256c17.664 0 32 14.304 32 32 0 17.664-14.336 32-32 32zM576 160h-128c-17.664 0-32-14.304-32-32s14.336-32 32-32h128c17.664 0 32 14.304 32 32s-14.336 32-32 32z" />
<glyph unicode="&#xe979;" glyph-name="03050010" d="M800 800h-256v128c0 17.664-14.336 32-32 32s-32-14.336-32-32v-128h-256c-35.328 0-64-28.672-64-64v-576c0-35.328 28.672-64 64-64h256v-128c0-17.696 14.336-32 32-32s32 14.304 32 32v128h256c35.328 0 64 28.672 64 64v576c0 35.328-28.672 64-64 64zM800 160h-576v576h576v-576zM384 192c17.664 0 32 14.304 32 32v82.752l96 96 96-96v-82.752c0-17.696 14.336-32 32-32s32 14.304 32 32v96c0 8.512-3.36 16.64-9.376 22.624l-105.376 105.376 105.376 105.376c6.016 5.984 9.376 14.144 9.376 22.624v96c0 17.664-14.336 32-32 32s-32-14.336-32-32v-82.752l-96-96-96 96v82.752c0 17.664-14.336 32-32 32s-32-14.336-32-32v-96c0-8.48 3.36-16.64 9.376-22.624l105.376-105.376-105.376-105.376c-6.016-5.984-9.376-14.112-9.376-22.624v-96c0-17.696 14.336-32 32-32z" />
</font>
</defs>
</svg>
