<?xml version="1.0" encoding="utf-8"?>
<!-- Generator: Adobe Illustrator 16.0.0, SVG Export Plug-In . SVG Version: 6.00 Build 0)  -->
<!DOCTYPE svg PUBLIC "-//W3C//DTD SVG 1.1//EN" "http://www.w3.org/Graphics/SVG/1.1/DTD/svg11.dtd">
<svg version="1.1" xmlns="http://www.w3.org/2000/svg" xmlns:xlink="http://www.w3.org/1999/xlink" x="0px" y="0px" width="32px"
	 height="32px" viewBox="0 0 32 32" enable-background="new 0 0 32 32" xml:space="preserve">
<g id="图层_1">
	<g stroke="#fff" fill="#fff">
		<path d="M8,28.994V17H6v11.994C6,30.651,7.348,32,9.004,32H17v-2H9.004C8.451,30,8,29.549,8,28.994z"/>
		<path d="M8,3.002C8,2.449,8.451,2,9.004,2H20v7c0,0.553,0.447,1,1,1h7v10h2V9.1c0.004-0.035,0.02-0.064,0.02-0.1
			c0-0.337-0.166-0.635-0.422-0.815l-7.891-7.894c-0.086-0.086-0.188-0.147-0.295-0.197c-0.022-0.01-0.046-0.016-0.07-0.024
			c-0.097-0.036-0.196-0.057-0.299-0.061C21.027,0.008,21.016,0,21,0H9.004C7.348,0,6,1.347,6,3.002V4h2V3.002z M22,3.413L26.586,8
			H22V3.413z"/>
		<path d="M1.121,6.762C0.373,7.521,0,8.498,0,9.693c0,1.135,0.334,2.045,1.004,2.727c0.668,0.682,1.572,1.023,2.712,1.023
			c0.886,0,1.603-0.135,2.153-0.406v-1.479c-0.553,0.324-1.167,0.488-1.841,0.488c-0.716,0-1.284-0.227-1.704-0.68
			c-0.42-0.451-0.63-1.049-0.63-1.791c0-0.762,0.222-1.379,0.664-1.852c0.442-0.471,1.034-0.707,1.772-0.707
			c0.648,0,1.227,0.148,1.738,0.449V5.908C5.371,5.717,4.752,5.621,4.014,5.621C2.832,5.621,1.867,6,1.121,6.762z"/>
		<path d="M11.475,13.311v-3.262c0-1.514-0.756-2.27-2.266-2.27c-0.289,0-0.639,0.041-1.047,0.127
			C7.753,7.99,7.427,8.102,7.183,8.238v1.215c0.569-0.391,1.177-0.586,1.821-0.586c0.654,0,0.981,0.314,0.981,0.943L8.501,10.01
			c-1.233,0.17-1.851,0.771-1.851,1.807c0,0.502,0.154,0.898,0.461,1.189c0.309,0.291,0.717,0.438,1.229,0.438
			c0.709,0,1.248-0.307,1.616-0.918h0.02v0.785H11.475z M9.673,11.969c-0.208,0.227-0.474,0.342-0.796,0.342
			c-0.234,0-0.421-0.063-0.559-0.186C8.18,12,8.11,11.838,8.11,11.637c0-0.439,0.284-0.697,0.854-0.771l1.021-0.133v0.387
			C9.985,11.457,9.881,11.74,9.673,11.969z"/>
		<path d="M16.465,8.541H16.44c-0.28-0.508-0.771-0.762-1.475-0.762c-0.732,0-1.325,0.271-1.78,0.813
			c-0.453,0.543-0.681,1.256-0.681,2.141c0,0.838,0.202,1.498,0.608,1.982c0.404,0.486,0.951,0.729,1.638,0.729
			c0.745,0,1.309-0.299,1.689-0.895h0.024v0.762h1.572V5.318h-1.572V8.541z M16.489,10.703c0,0.453-0.112,0.82-0.337,1.104
			s-0.512,0.426-0.859,0.426c-0.371,0-0.662-0.135-0.874-0.402c-0.212-0.27-0.317-0.65-0.317-1.146c0-0.52,0.109-0.934,0.33-1.236
			c0.219-0.305,0.521-0.457,0.905-0.457c0.329,0,0.603,0.119,0.823,0.359c0.219,0.238,0.329,0.541,0.329,0.904V10.703z"/>
		<path d="M31.707,25.293l-3-3c-0.391-0.391-1.023-0.391-1.414,0s-0.391,1.023,0,1.414L28.586,25H20c-0.553,0-1,0.447-1,1
			s0.447,1,1,1h8.586l-1.293,1.293c-0.391,0.391-0.391,1.023,0,1.414C27.488,29.902,27.744,30,28,30s0.512-0.098,0.707-0.293l3-3
			C32.098,26.316,32.098,25.684,31.707,25.293z"/>
	</g>
</g>
<g id="图层_2">
</g>
</svg>
