<svg height="512pt" viewBox="-16 0 512 512" width="512pt" xmlns="http://www.w3.org/2000/svg"><path d="m195 121c-8.289062 0-15-6.710938-15-15v-91c0-8.289062 6.710938-15 15-15s15 6.710938 15 15v91c0 8.289062-6.710938 15-15 15zm0 0" fill="#68544f"/><path d="m285 121c-8.289062 0-15-6.710938-15-15v-91c0-8.289062 6.710938-15 15-15s15 6.710938 15 15v91c0 8.289062-6.710938 15-15 15zm0 0" fill="#53433f"/><path d="m435 181c-8.398438 0-15 6.601562-15 15v45h-97.199219l-9.902343-59.699219 99.902343-62.699219c4.199219-2.703124 7.199219-7.203124 7.199219-12.601562v-60c0-8.398438-6.601562-15-15-15s-15 6.601562-15 15v45h-300v-45c0-8.398438-6.601562-15-15-15s-15 6.601562-15 15v60c0 5.101562 2.699219 9.898438 6.898438 12.601562l100.203124 62.699219-9.902343 59.699219h-97.199219v-45c0-8.398438-6.601562-15-15-15s-15 6.601562-15 15v60c0 5.398438 2.699219 10.199219 7.199219 12.898438l103.5 72.300781-20.398438 122.101562c-2.402343 12 10.5 22.5 22.199219 15.300781l.300781.296876 97.199219-68.097657 97.199219 68.097657.300781-.296876c11.699219 7.199219 24.601562-3.300781 22.199219-15.300781l-20.398438-122.101562 103.199219-72.597657c4.5-2.703124 7.5-7.203124 7.5-12.601562v-60c0-8.398438-6.601562-15-15-15zm-82.199219-60-45.300781 28.199219-4.800781-28.199219zm-63.601562 101.101562-21-12.902343 17.101562-10.800781zm-81.597657-101.101562h64.796876l7.5 45.601562-39.898438 24.898438-39.898438-24.898438zm55.199219 120h-45.601562l22.800781-14.101562zm-68.101562-42.601562 17.101562 10.800781-21 12.902343zm-67.5-77.398438h50.101562l-4.800781 28.199219zm18.902343 186.898438-52.800781-36.898438h59.097657zm9.597657 125.402343 12-73.199219 46.199219 32.398438zm17.699219-106.199219 9.300781-56.101562h114.601562l9.300781 56.398438-66.601562 46.800781zm92.703124 65.398438 46.199219-32.398438 12 73.199219zm67.796876-84-6.296876-37.5h60zm0 0" fill="#68544f"/><path d="m268.199219 209.199219 17.101562-10.800781 3.898438 23.703124zm34.5-88.199219h50.101562l-45.300781 28.199219zm-36.597657 271.5 46.199219-32.402344 12 73.203125zm67.796876-84-6.300782-37.5h60zm101.101562-127.5c-8.398438 0-15 6.601562-15 15v45h-97.199219l-9.902343-59.699219 99.902343-62.699219c4.199219-2.703124 7.199219-7.203124 7.199219-12.601562v-60c0-8.398438-6.601562-15-15-15s-15 6.601562-15 15v45h-150v30h32.398438l7.5 45.601562-39.898438 24.898438v35.398438l22.800781 14.101562h-22.800781v30h57.300781l9.300781 56.398438-66.601562 46.800781v36.601562l97.199219 68.097657.300781-.296876c11.699219 7.199219 24.601562-3.300781 22.199219-15.300781l-20.398438-122.101562 103.199219-72.597657c4.5-2.703124 7.5-7.203124 7.5-12.601562v-60c0-8.398438-6.601562-15-15-15zm0 0" fill="#53433f"/><path d="m330 15c0 8.398438-6.597656 15-15 15h-150c-8.402344 0-15-6.601562-15-15 0-8.402344 6.597656-15 15-15h150c8.402344 0 15 6.597656 15 15zm0 0" fill="#ff9f00"/><path d="m435 61h-60c-8.289062 0-15-6.710938-15-15s6.710938-15 15-15h60c8.289062 0 15 6.710938 15 15s-6.710938 15-15 15zm0 0" fill="#ff7816"/><path d="m105 61h-60c-8.289062 0-15-6.710938-15-15s6.710938-15 15-15h60c8.289062 0 15 6.710938 15 15s-6.710938 15-15 15zm0 0" fill="#ff9f00"/><path d="m465 211h-60c-8.289062 0-15-6.710938-15-15s6.710938-15 15-15h60c8.289062 0 15 6.710938 15 15s-6.710938 15-15 15zm0 0" fill="#ff7816"/><path d="m75 211h-60c-8.289062 0-15-6.710938-15-15s6.710938-15 15-15h60c8.289062 0 15 6.710938 15 15s-6.710938 15-15 15zm0 0" fill="#ff9f00"/><path d="m420 497c0 8.398438-6.597656 15-15 15h-330c-8.402344 0-15-6.601562-15-15 0-24.902344 20.097656-46 45-46h270c24.902344 0 45 21.097656 45 46zm0 0" fill="#a8d32a"/><path d="m315 30h-75v-30h75c8.402344 0 15 6.597656 15 15 0 8.398438-6.597656 15-15 15zm0 0" fill="#ff7816"/><path d="m420 497c0 8.398438-6.597656 15-15 15h-165v-61h135c24.902344 0 45 21.097656 45 46zm0 0" fill="#93bf00"/></svg>